<?xml version="1.0" encoding="UTF-8" standalone="no"?><!DOCTYPE svg PUBLIC "-//W3C//DTD SVG 1.1//EN" "http://www.w3.org/Graphics/SVG/1.1/DTD/svg11.dtd"><svg width="100%" height="100%" viewBox="0 0 1024 1024" version="1.1" xmlns="http://www.w3.org/2000/svg" xmlns:xlink="http://www.w3.org/1999/xlink" xml:space="preserve" xmlns:serif="http://www.serif.com/" style="fill-rule:evenodd;clip-rule:evenodd;stroke-linejoin:round;stroke-miterlimit:2;"><path d="M619.485,24.27c45.648,-6.49 118.397,91.705 110.495,134.313c-8.081,45.757 -49.725,58.718 -85.414,78.292c-75.44,41.372 -151.255,82.428 -229.684,117.989c-8.842,4.007 -27.955,10.439 -34.901,15.903c33.604,2.223 76.156,-0.022 111.065,0c11.803,-8.669 33.313,-20.914 46.358,-28.403l61.016,-34.733l198.882,-108.456c39.252,-20.973 80.988,-40.667 121.658,-58.799c19.751,-8.806 32.801,-19.331 38.875,10.204c2.374,11.549 3.831,23.257 4.857,35.08c8.157,82.45 29.138,440.246 1.474,517.361c10.73,13.411 13.009,26.725 -8.151,18.358c-65.451,-25.883 -130.081,-55.094 -193.784,-85.026c-1.13,37.37 2.684,73.024 2.872,109.715l3.686,74.567c2.114,38.271 9.55,72.543 -22.396,101.301c-30.486,27.443 -94.072,21.596 -135.631,23.003c-149.191,5.316 -298.043,12.438 -446.873,24.356c-12.343,0.987 -26.375,3.498 -38.654,2.553c-70.815,-2.88 -64.954,-87.996 -68.593,-135.71c-2.992,-39.224 -23.496,-286.961 -2.412,-304.634c-22.834,-73.027 -17.849,-171.511 81.609,-147.614c63.922,-19.082 155.695,-8.355 225.884,-13.123c-11.294,-5.713 -20.755,-17.125 -29.364,-26.431c-44.551,-48.15 -87.364,-111.876 -15.936,-160.485c11.138,-7.631 23.808,-11.759 35.444,-18.218c75.641,-42.004 148.251,-89.069 225.089,-129.106c12.262,-6.389 28.897,-10.596 42.532,-12.257Zm-551.756,504.38c12.737,19.563 10.29,53.536 12.052,77.143c3.358,44.988 5.976,90.305 8.126,135.335l2.402,49.207c0.386,8.887 0.587,23.534 1.988,31.904c155.933,-22.147 313.253,-27.796 470.405,-35.754c21.574,-1.093 48.505,0.126 69.322,-3.669c29.717,2.724 63.53,-0.12 93.845,0c0.185,-16.185 -0.965,-31.814 -1.381,-47.915l-6.773,-247.715c-0.831,-34.02 6.286,-52.16 -27.594,-73.055l-249.418,0.008c-87.875,-0.006 -163.682,-1.902 -251.389,-7.751c-15.369,-1.009 -54.081,-5.967 -66.589,-4.418c-69.336,7.114 -36.861,82.478 -54.996,126.68Zm803.103,-333.582c-11.216,8.16 -31.053,16.521 -39.127,22.785c-9.687,16.683 -38.226,92.232 -47.434,99.886l-1.535,-0.436c-11.141,-9.874 -7.992,-22.483 -3.733,-34.596c6.666,-18.081 14.726,-32.863 21.317,-49.923c-9.208,3.669 -22.455,10.735 -31.822,15.276c-10.755,34.739 -26.666,77.238 -44.023,109.541c-22.706,-20.282 4.675,-68.896 14.063,-94.167c-8.926,5.517 -34.107,19.56 -43.385,24.035c-7.075,25.729 -18.322,52.703 -26.993,77.999c-21.607,-14.323 -6.213,-43.287 0,-62.968c-10.685,5.738 -28.031,14.446 -36.134,22.759c-8.059,12.301 -13.238,33.089 -19.312,47.583c49.635,0.674 91.614,-9.178 125.825,36.271c24.214,-73.636 116.722,-141.235 187.996,-164.918c-1.742,-23.028 0.073,-57.935 3.546,-80.552c-9.242,3.507 -21.132,9.547 -29.412,15.097c-5.484,12.245 -25.279,79.19 -36.484,80.745c-17.262,-7.902 4.01,-52.384 6.65,-64.417Zm-775.355,704.898c13.053,41.562 43.548,31.218 79.274,28.293l65.423,-4.919c130.604,-9.885 261.182,-14.463 392.026,-19.063c6.513,-0.229 13.512,0.274 19.93,-0.308l1.194,-1.035c-9.063,-12.117 -4.866,-26.47 -9.214,-39.912c-2.732,-1.507 -14.524,2.844 -19.214,3.459c-6.236,5.973 -30.435,27.88 -37.714,28.349l-0.864,-0.791c0.101,-2.273 0.85,-5.238 2.178,-7.019c-4.209,-7.251 -6.286,-17.142 -8.616,-25.371c-10.425,2.757 -17.444,5.078 -28.224,4.832c-3.563,3.937 -53.184,45.972 -38.483,20.539c-10.903,0.719 -10.095,-12.268 -11.98,-20.539c-9.385,2.237 -23.696,5.528 -33.24,5.159c-1.096,0.965 -53.405,45.066 -39.554,19.963l-2.754,-0.749c-3.736,-3.059 -5.218,-10.607 -6.616,-15.495c-7.402,-0.165 -25.995,0.825 -31.49,0c-7.161,9.628 -27.393,24.421 -38.453,29.205c0.71,-3.115 1.871,-8.873 2.827,-11.678c-4.681,-5.321 -5.942,-10.827 -8.163,-17.528c-9.695,0.282 -22.004,1.695 -31.168,0c-2.855,4.161 -47.233,44.756 -41.744,27.575c-4.309,-4.726 -6.591,-12.444 -8.864,-18.596c-10.047,-0.629 -19.197,0.828 -28.981,0c-4.373,4.102 -46.271,43.699 -42.661,23.618c-3.901,-8.149 -5.173,-12.072 -6.859,-20.936c-6.311,1.966 -21.521,4.253 -28.299,4.583c-5.551,5.995 -26.207,30.48 -34.91,27.48c-4.259,-6.323 2.657,-14.102 6.364,-19.119c-1.39,-0.618 -26.537,0.131 -31.151,0Zm271.78,-672.852c-0.338,-16.943 -0.389,-20.942 4.141,-37.622c-39.672,19.393 -83.144,30.919 -46.995,84.288c8.244,-22.952 17.41,-36.188 42.854,-46.665Zm20.282,-10.813c9.41,-11.543 38.43,-27.575 51.802,-31.613c-1.13,-15.657 2.033,-23.431 10.721,-36.274c-23.35,11.521 -47.736,22.885 -70.082,36.274c2.313,10.397 4.58,21.451 7.559,31.613Zm125.634,-74.456c2.752,-11.585 4.86,-19.916 9.164,-31.185c-18.213,7.698 -54.694,27.357 -72.274,37.754c2.763,5.288 4.474,18.951 5.159,25.472c10.766,-6.748 46.632,-28.847 57.952,-32.041Zm429.533,475.614c-3.504,31.599 -6.135,27.139 -16.174,55.851c8.367,5.57 17.251,12.17 25.148,18.406c0.361,-17.363 0.688,-59.808 -8.973,-74.257Zm-410.381,-486.084c18.324,-10.268 26.048,-13.434 45.608,-20.715c3.624,-13.246 6.337,-24.135 12.983,-36.361c-17.206,9.583 -43.318,21.232 -58.592,31.833c-0.067,7.975 0.562,17.706 0,25.243Zm62.661,-59.788c2.011,7.354 2.304,19.381 2.265,27.334c19.7,-6.731 27.136,-11.641 47.558,0l2.827,-20.36c-7.022,-6.559 -13.663,-12.167 -22.74,-15.729c-11.032,1.984 -19.563,3.987 -29.91,8.756Z" style="fill-rule:nonzero;"/><path d="M312.583,463.878c33.05,-2.69 195.77,81.385 232.136,101.205c12.248,7.304 31.291,12.558 38.788,25.301c21.118,34.266 -28.361,57.641 -50.446,70.518l-52.999,30.813c-8.512,4.027 -19.46,10.503 -27.849,15.176l-52.644,29.683c-23.928,13.537 -57.356,37.116 -83.561,20.055c-27.074,-17.631 -24.742,-81.203 -28.305,-111.552c-4.785,-47.233 -10.853,-95.543 -10.327,-143.064c0.238,-21.412 15.338,-34.135 35.206,-38.137Zm31.168,67.627c41.224,7.542 100.775,39.11 136.311,41.087c-34.77,-16.582 -68.894,-34.381 -103.61,-51.061c-23.484,-11.28 -41.593,-22.891 -67.244,-29.267c-1.826,19.583 1.183,43.461 3.375,63.083c3.809,-1.471 16.538,-17.997 31.168,-23.842Z" style="fill-rule:nonzero;"/><path d="M343.751,531.505c41.224,7.542 100.775,39.11 136.311,41.087c18.157,12.237 51.629,23.313 71.595,34.834c-35.93,13.397 -110.383,61.05 -144.904,81.586l-36.772,22.018c-28.377,17.066 -36.369,29.356 -40.494,-2.824l-3.876,-31.451c-4.997,-41.285 -9.127,-80.037 -13.028,-121.409c3.809,-1.471 16.538,-17.997 31.168,-23.842Z" style="fill:#ea7dff;fill-rule:nonzero;"/><path d="M738.537,409.111c10.867,-7.821 23.028,-23.763 33.553,-33.098c35.743,-31.699 74.019,-58.67 116.124,-81.321c11.571,-6.225 27.815,-13.811 38.318,-20.914c5.428,22.139 4.95,50.835 6.353,73.868c2.204,36.132 3.507,81.368 8.358,116.23c2.153,43.19 5.386,85.001 8.328,127.88l-0.54,-0.822c-8.996,-13.943 -11.907,-29.762 -23.137,-44.674c-34.398,-45.673 -113.07,-85.909 -171.187,-89.198c-2.346,-21.837 -5.565,-28.984 -16.171,-47.952Z" style="fill:#ea7dff;fill-rule:nonzero;"/><path d="M597.251,98.92c19.7,-6.731 27.136,-11.641 47.558,0c1.242,26.974 -0.817,53.108 5.951,79.819c4.334,-21.859 12.276,-64.772 7.807,-86.474c53.67,58.1 41.632,69.47 -19.121,102.201l-50.329,27.192c-10.098,5.347 -20.701,10.495 -30.634,16.043l-62.677,35.687c-6.404,3.719 -26.672,16.138 -32.208,18.196c-0.506,0.657 -73.625,43.201 -80.423,47.275c-21.087,-19.949 -42.334,-41.036 -58.771,-65.079c8.244,-22.952 17.41,-36.188 42.854,-46.665c3.163,29.896 9.555,73.376 27.287,98.143c3.042,-35.105 -9.58,-76.416 -7.005,-108.957c9.41,-11.543 38.43,-27.575 51.802,-31.613c-0.221,33.752 6.166,78.127 24.256,106.896c2.444,-9.784 -6.666,-101.264 -8.375,-117.698c10.766,-6.748 46.632,-28.847 57.952,-32.041c0.593,30.122 -2.76,85.233 13.643,112.307c8.216,-35.276 5.587,-86.402 5.509,-122.777c18.324,-10.268 26.048,-13.434 45.608,-20.715c3.769,35.156 -6.488,69.828 10.562,105.64c3.716,-42.063 8.814,-72.364 8.755,-117.38Z" style="fill:#ea7dff;fill-rule:nonzero;"/><path d="M92.297,823.399c84.783,10.593 166.489,10.223 251.453,10.187c7.069,0.391 17.832,0.05 25.167,0.034l48.424,-0.034c-1.124,9.446 -22.256,34.141 -29.803,41.775c-7.161,9.628 -27.393,24.421 -38.453,29.205c0.71,-3.115 1.871,-8.873 2.827,-11.678c-4.681,-5.321 -5.942,-10.827 -8.163,-17.528c-9.695,0.282 -22.004,1.695 -31.168,0c-2.855,4.161 -47.233,44.756 -41.744,27.575c-4.309,-4.726 -6.591,-12.444 -8.864,-18.596c-10.047,-0.629 -19.197,0.828 -28.981,0c-4.373,4.102 -46.271,43.699 -42.661,23.618c-3.901,-8.149 -5.173,-12.072 -6.859,-20.936c-6.311,1.966 -21.521,4.253 -28.299,4.583c-5.551,5.995 -26.207,30.48 -34.91,27.48c-4.259,-6.323 2.657,-14.102 6.364,-19.119c-1.39,-0.618 -26.537,0.131 -31.151,0c1.093,-24.323 -2.771,-51.632 -3.179,-76.567Z" style="fill:#ea7dff;fill-rule:nonzero;"/><path d="M126.628,899.966c12.2,-14.172 49.308,-54.09 63.704,-63.986c-5.844,17.785 -23.612,40.816 -35.159,55.625c-5.551,5.995 -26.207,30.48 -34.91,27.48c-4.259,-6.323 2.657,-14.102 6.364,-19.119Z" style="fill-rule:nonzero;"/><path d="M343.751,835.979c1.546,9.382 -24.046,33.797 -31.168,39.381c-2.855,4.161 -47.233,44.756 -41.744,27.575c11.404,-25.724 49.126,-51.565 72.912,-66.956Z" style="fill-rule:nonzero;"/><path d="M190.332,907.958c18.668,-26.971 52.652,-51.179 80.507,-69.061c-7.88,14.698 -26.588,32.695 -37.846,45.443c-4.373,4.102 -46.271,43.699 -42.661,23.618Z" style="fill-rule:nonzero;"/><path d="M417.342,833.586c-1.124,9.446 -22.256,34.141 -29.803,41.775c-7.161,9.628 -27.393,24.421 -38.453,29.205c0.71,-3.115 1.871,-8.873 2.827,-11.678c15.735,-26.549 42.11,-38.517 65.429,-59.302Z" style="fill-rule:nonzero;"/><path d="M417.342,833.586c11.35,-2.366 39.129,-2.466 52.306,-2.917l140.075,-4.245c39.77,-1.521 79.12,-4.161 118.976,-3.026c5.056,74.075 4.978,77.764 -70.132,79.537c26.207,-21.35 43.701,-41.794 48.807,-76.944c-28.179,30.117 -38.956,34.135 -54.051,76.944c-9.063,-12.117 -4.866,-26.47 -9.214,-39.912c-2.732,-1.507 -14.524,2.844 -19.214,3.459c-6.236,5.973 -30.435,27.88 -37.714,28.349l-0.864,-0.791c0.101,-2.273 0.85,-5.238 2.178,-7.019c-4.209,-7.251 -6.286,-17.142 -8.616,-25.371c-10.425,2.757 -17.444,5.078 -28.224,4.832c-3.563,3.937 -53.184,45.972 -38.483,20.539c-10.903,0.719 -10.095,-12.268 -11.98,-20.539c-9.385,2.237 -23.696,5.528 -33.24,5.159c-1.096,0.965 -53.405,45.066 -39.554,19.963l-2.754,-0.749c-3.736,-3.059 -5.218,-10.607 -6.616,-15.495c-7.402,-0.165 -25.995,0.825 -31.49,0c7.547,-7.634 28.679,-32.329 29.803,-41.775Z" style="fill:#ea7dff;fill-rule:nonzero;"/><path d="M495.327,833.586c-5.755,15.503 -16.672,25.986 -27.373,38.056c-1.096,0.965 -53.405,45.066 -39.554,19.963c9.2,-17.782 27.105,-29.051 43.072,-40.611l23.856,-17.407Z" style="fill-rule:nonzero;"/><path d="M513.173,887.021c7.061,-18.545 42.258,-42.116 59.221,-55.569c-5.52,15.911 -10.405,22.351 -20.738,35.03c-3.563,3.937 -53.184,45.972 -38.483,20.539Z" style="fill-rule:nonzero;"/><path d="M588.496,887.021c12.486,-21.974 36.095,-40.687 56.313,-55.569c-5.403,16.031 -9.689,21.42 -19.913,35.03c-6.236,5.973 -30.435,27.88 -37.714,28.349l-0.864,-0.791c0.101,-2.273 0.85,-5.238 2.178,-7.019Z" style="fill-rule:nonzero;"/><path d="M756.542,474.328c66.922,47.667 141.657,58.723 186.164,143.131c-3.504,31.599 -6.135,27.139 -16.174,55.851c-14.941,-7.642 -28.677,-17.066 -44.216,-23.57c5.923,-13.859 19.365,-65.205 5.623,-76.997l-1.667,0.576c-9.768,9.868 -15.506,54.806 -15.441,69.677c-11.591,-3.971 -22.368,-10.721 -35.142,-14.988c18.699,-23.839 9.292,-73.399 -3.985,-99.357c0.02,20.564 -11.722,69.291 -16.28,91.541c-9.843,-3.462 -23.59,-7.869 -32.485,-12.765c29.244,-23.786 15.92,-80.434 2.729,-109.732c-1.764,35.17 -13.213,70.051 -17.172,105.076l-8.971,0c1.669,-40.402 -4.13,-85.996 -2.984,-128.442Z" style="fill:#ea7dff;fill-rule:nonzero;"/><path d="M606.314,336.571c1.806,3.319 -8.294,20.978 -1.242,34.669l0.537,1.032c-2.011,0.94 -52.211,0.565 -58.872,0.568c-6.996,-0.333 4.519,-4.555 6.58,-5.643c18.101,-9.541 35.589,-19.885 52.996,-30.626Z" style="fill:#ea7dff;fill-rule:nonzero;"/></svg>