<svg width="824" height="106" viewBox="0 0 824 106" fill="none" xmlns="http://www.w3.org/2000/svg">
<circle cx="41" cy="41" r="41" fill="#EA7DFF"/>
<path d="M126.9 62.84C123.9 62.84 121.22 62.32 118.86 61.28C116.5 60.2 114.64 58.58 113.28 56.42C111.92 54.22 111.24 51.44 111.24 48.08V46.94H115.08V48.08C115.08 51.96 116.18 54.84 118.38 56.72C120.62 58.56 123.46 59.48 126.9 59.48C130.38 59.48 133.06 58.68 134.94 57.08C136.82 55.44 137.76 53.36 137.76 50.84C137.76 49.16 137.34 47.82 136.5 46.82C135.7 45.78 134.56 44.96 133.08 44.36C131.64 43.72 129.96 43.16 128.04 42.68L124.2 41.72C121.92 41.12 119.88 40.38 118.08 39.5C116.28 38.58 114.86 37.4 113.82 35.96C112.78 34.48 112.26 32.6 112.26 30.32C112.26 28.04 112.84 26.06 114 24.38C115.2 22.7 116.84 21.42 118.92 20.54C121 19.62 123.42 19.16 126.18 19.16C128.94 19.16 131.42 19.64 133.62 20.6C135.86 21.56 137.62 22.98 138.9 24.86C140.22 26.7 140.88 29.02 140.88 31.82V34.64H137.04V31.82C137.04 29.62 136.56 27.84 135.6 26.48C134.64 25.12 133.34 24.12 131.7 23.48C130.06 22.84 128.22 22.52 126.18 22.52C123.26 22.52 120.84 23.2 118.92 24.56C117.04 25.88 116.1 27.8 116.1 30.32C116.1 32 116.48 33.34 117.24 34.34C118.04 35.34 119.14 36.14 120.54 36.74C121.98 37.34 123.66 37.88 125.58 38.36L129.42 39.32C131.62 39.84 133.64 40.54 135.48 41.42C137.32 42.26 138.8 43.44 139.92 44.96C141.04 46.44 141.6 48.4 141.6 50.84C141.6 53.28 140.98 55.4 139.74 57.2C138.54 59 136.84 60.4 134.64 61.4C132.44 62.36 129.86 62.84 126.9 62.84ZM163.573 62.84C160.733 62.84 158.193 62.24 155.953 61.04C153.753 59.8 152.013 58.04 150.733 55.76C149.453 53.48 148.813 50.8 148.813 47.72V47.12C148.813 44 149.453 41.32 150.733 39.08C152.013 36.8 153.753 35.06 155.953 33.86C158.193 32.62 160.733 32 163.573 32C166.373 32 168.733 32.54 170.653 33.62C172.613 34.66 174.133 36.04 175.213 37.76C176.333 39.44 177.033 41.22 177.313 43.1L173.773 43.82C173.573 42.26 173.073 40.84 172.273 39.56C171.473 38.24 170.353 37.2 168.913 36.44C167.473 35.64 165.693 35.24 163.573 35.24C161.453 35.24 159.553 35.74 157.873 36.74C156.193 37.7 154.853 39.08 153.853 40.88C152.893 42.64 152.413 44.74 152.413 47.18V47.66C152.413 50.1 152.893 52.22 153.853 54.02C154.853 55.78 156.193 57.16 157.873 58.16C159.553 59.12 161.453 59.6 163.573 59.6C166.773 59.6 169.213 58.78 170.893 57.14C172.573 55.46 173.613 53.42 174.013 51.02L177.553 51.74C177.193 53.62 176.433 55.42 175.273 57.14C174.153 58.82 172.613 60.2 170.653 61.28C168.733 62.32 166.373 62.84 163.573 62.84ZM186.405 62V20H190.005V37.94H190.725C191.205 36.98 191.865 36.08 192.705 35.24C193.585 34.36 194.705 33.66 196.065 33.14C197.465 32.58 199.205 32.3 201.285 32.3C203.405 32.3 205.345 32.74 207.105 33.62C208.865 34.5 210.265 35.82 211.305 37.58C212.385 39.34 212.925 41.56 212.925 44.24V62H209.325V44.48C209.325 41.28 208.525 39 206.925 37.64C205.325 36.24 203.185 35.54 200.505 35.54C197.505 35.54 195.005 36.52 193.005 38.48C191.005 40.44 190.005 43.42 190.005 47.42V62H186.405ZM236.463 62.84C233.503 62.84 230.903 62.22 228.663 60.98C226.463 59.7 224.743 57.94 223.503 55.7C222.303 53.42 221.703 50.78 221.703 47.78V47.06C221.703 44.06 222.303 41.44 223.503 39.2C224.743 36.92 226.463 35.16 228.663 33.92C230.903 32.64 233.503 32 236.463 32C239.423 32 242.003 32.64 244.203 33.92C246.443 35.16 248.163 36.92 249.363 39.2C250.603 41.44 251.223 44.06 251.223 47.06V47.78C251.223 50.78 250.603 53.42 249.363 55.7C248.163 57.94 246.443 59.7 244.203 60.98C242.003 62.22 239.423 62.84 236.463 62.84ZM236.463 59.6C239.903 59.6 242.623 58.52 244.623 56.36C246.623 54.16 247.623 51.26 247.623 47.66V47.18C247.623 43.58 246.623 40.7 244.623 38.54C242.623 36.34 239.903 35.24 236.463 35.24C233.063 35.24 230.343 36.34 228.303 38.54C226.303 40.7 225.303 43.58 225.303 47.18V47.66C225.303 51.26 226.303 54.16 228.303 56.36C230.343 58.52 233.063 59.6 236.463 59.6ZM273.67 62.84C270.71 62.84 268.11 62.22 265.87 60.98C263.67 59.7 261.95 57.94 260.71 55.7C259.51 53.42 258.91 50.78 258.91 47.78V47.06C258.91 44.06 259.51 41.44 260.71 39.2C261.95 36.92 263.67 35.16 265.87 33.92C268.11 32.64 270.71 32 273.67 32C276.63 32 279.21 32.64 281.41 33.92C283.65 35.16 285.37 36.92 286.57 39.2C287.81 41.44 288.43 44.06 288.43 47.06V47.78C288.43 50.78 287.81 53.42 286.57 55.7C285.37 57.94 283.65 59.7 281.41 60.98C279.21 62.22 276.63 62.84 273.67 62.84ZM273.67 59.6C277.11 59.6 279.83 58.52 281.83 56.36C283.83 54.16 284.83 51.26 284.83 47.66V47.18C284.83 43.58 283.83 40.7 281.83 38.54C279.83 36.34 277.11 35.24 273.67 35.24C270.27 35.24 267.55 36.34 265.51 38.54C263.51 40.7 262.51 43.58 262.51 47.18V47.66C262.51 51.26 263.51 54.16 265.51 56.36C267.55 58.52 270.27 59.6 273.67 59.6ZM297.557 62V20H301.157V62H297.557ZM340.526 62.84C337.566 62.84 334.966 62.22 332.726 60.98C330.526 59.7 328.806 57.94 327.566 55.7C326.366 53.42 325.766 50.78 325.766 47.78V47.06C325.766 44.06 326.366 41.44 327.566 39.2C328.806 36.92 330.526 35.16 332.726 33.92C334.966 32.64 337.566 32 340.526 32C343.486 32 346.066 32.64 348.266 33.92C350.506 35.16 352.226 36.92 353.426 39.2C354.666 41.44 355.286 44.06 355.286 47.06V47.78C355.286 50.78 354.666 53.42 353.426 55.7C352.226 57.94 350.506 59.7 348.266 60.98C346.066 62.22 343.486 62.84 340.526 62.84ZM340.526 59.6C343.966 59.6 346.686 58.52 348.686 56.36C350.686 54.16 351.686 51.26 351.686 47.66V47.18C351.686 43.58 350.686 40.7 348.686 38.54C346.686 36.34 343.966 35.24 340.526 35.24C337.126 35.24 334.406 36.34 332.366 38.54C330.366 40.7 329.366 43.58 329.366 47.18V47.66C329.366 51.26 330.366 54.16 332.366 56.36C334.406 58.52 337.126 59.6 340.526 59.6ZM369.244 62V36.08H359.644V32.84H369.244V24.56C369.244 23.12 369.624 22 370.384 21.2C371.184 20.4 372.364 20 373.924 20H381.124V23.24H374.644C373.444 23.24 372.844 23.84 372.844 25.04V32.84H382.684V36.08H372.844V62H369.244ZM414.228 62V23.48H400.188V20H432.108V23.48H418.068V62H414.228ZM446.229 62.84C443.269 62.84 440.669 62.22 438.429 60.98C436.229 59.7 434.509 57.94 433.269 55.7C432.069 53.42 431.469 50.78 431.469 47.78V47.06C431.469 44.06 432.069 41.44 433.269 39.2C434.509 36.92 436.229 35.16 438.429 33.92C440.669 32.64 443.269 32 446.229 32C449.189 32 451.769 32.64 453.969 33.92C456.209 35.16 457.929 36.92 459.129 39.2C460.369 41.44 460.989 44.06 460.989 47.06V47.78C460.989 50.78 460.369 53.42 459.129 55.7C457.929 57.94 456.209 59.7 453.969 60.98C451.769 62.22 449.189 62.84 446.229 62.84ZM446.229 59.6C449.669 59.6 452.389 58.52 454.389 56.36C456.389 54.16 457.389 51.26 457.389 47.66V47.18C457.389 43.58 456.389 40.7 454.389 38.54C452.389 36.34 449.669 35.24 446.229 35.24C442.829 35.24 440.109 36.34 438.069 38.54C436.069 40.7 435.069 43.58 435.069 47.18V47.66C435.069 51.26 436.069 54.16 438.069 56.36C440.109 58.52 442.829 59.6 446.229 59.6ZM470.116 62V32.84H473.596V36.68H474.316C474.916 35.6 475.876 34.6 477.196 33.68C478.516 32.72 480.396 32.24 482.836 32.24C485.196 32.24 487.096 32.78 488.536 33.86C490.016 34.94 491.076 36.24 491.716 37.76H492.436C493.116 36.24 494.176 34.94 495.616 33.86C497.056 32.78 499.076 32.24 501.676 32.24C503.676 32.24 505.416 32.66 506.896 33.5C508.376 34.3 509.536 35.44 510.376 36.92C511.216 38.36 511.636 40.06 511.636 42.02V62H508.036V42.38C508.036 40.3 507.396 38.64 506.116 37.4C504.876 36.12 503.116 35.48 500.836 35.48C498.516 35.48 496.576 36.24 495.016 37.76C493.456 39.24 492.676 41.42 492.676 44.3V62H489.076V42.38C489.076 40.3 488.436 38.64 487.156 37.4C485.916 36.12 484.156 35.48 481.876 35.48C479.556 35.48 477.616 36.24 476.056 37.76C474.496 39.24 473.716 41.42 473.716 44.3V62H470.116ZM535.174 62.84C532.214 62.84 529.614 62.22 527.374 60.98C525.174 59.7 523.454 57.94 522.214 55.7C521.014 53.42 520.414 50.78 520.414 47.78V47.06C520.414 44.06 521.014 41.44 522.214 39.2C523.454 36.92 525.174 35.16 527.374 33.92C529.614 32.64 532.214 32 535.174 32C538.134 32 540.714 32.64 542.914 33.92C545.154 35.16 546.874 36.92 548.074 39.2C549.314 41.44 549.934 44.06 549.934 47.06V47.78C549.934 50.78 549.314 53.42 548.074 55.7C546.874 57.94 545.154 59.7 542.914 60.98C540.714 62.22 538.134 62.84 535.174 62.84ZM535.174 59.6C538.614 59.6 541.334 58.52 543.334 56.36C545.334 54.16 546.334 51.26 546.334 47.66V47.18C546.334 43.58 545.334 40.7 543.334 38.54C541.334 36.34 538.614 35.24 535.174 35.24C531.774 35.24 529.054 36.34 527.014 38.54C525.014 40.7 524.014 43.58 524.014 47.18V47.66C524.014 51.26 525.014 54.16 527.014 56.36C529.054 58.52 531.774 59.6 535.174 59.6ZM559.061 62V32.84H562.541V36.5H563.261C563.821 35.18 564.641 34.22 565.721 33.62C566.841 33.02 568.381 32.72 570.341 32.72H573.761V36.08H569.921C567.721 36.08 565.961 36.7 564.641 37.94C563.321 39.18 562.661 41.12 562.661 43.76V62H559.061ZM581.21 62V32.84H584.69V36.5H585.41C585.97 35.18 586.79 34.22 587.87 33.62C588.99 33.02 590.53 32.72 592.49 32.72H595.91V36.08H592.07C589.87 36.08 588.11 36.7 586.79 37.94C585.47 39.18 584.81 41.12 584.81 43.76V62H581.21ZM615.623 62.84C612.663 62.84 610.063 62.22 607.823 60.98C605.623 59.7 603.903 57.94 602.663 55.7C601.463 53.42 600.863 50.78 600.863 47.78V47.06C600.863 44.06 601.463 41.44 602.663 39.2C603.903 36.92 605.623 35.16 607.823 33.92C610.063 32.64 612.663 32 615.623 32C618.583 32 621.163 32.64 623.363 33.92C625.603 35.16 627.323 36.92 628.523 39.2C629.763 41.44 630.383 44.06 630.383 47.06V47.78C630.383 50.78 629.763 53.42 628.523 55.7C627.323 57.94 625.603 59.7 623.363 60.98C621.163 62.22 618.583 62.84 615.623 62.84ZM615.623 59.6C619.063 59.6 621.783 58.52 623.783 56.36C625.783 54.16 626.783 51.26 626.783 47.66V47.18C626.783 43.58 625.783 40.7 623.783 38.54C621.783 36.34 619.063 35.24 615.623 35.24C612.223 35.24 609.503 36.34 607.463 38.54C605.463 40.7 604.463 43.58 604.463 47.18V47.66C604.463 51.26 605.463 54.16 607.463 56.36C609.503 58.52 612.223 59.6 615.623 59.6ZM643.549 62L636.949 32.84H640.669L646.429 59.6H647.149L654.649 32.84H660.769L668.269 59.6H668.989L674.749 32.84H678.469L671.869 62H665.569L658.069 35.24H657.349L649.849 62H643.549ZM686.366 32.12V29.6H687.806C689.086 29.6 689.726 28.96 689.726 27.68V25.76H688.946C687.986 25.76 687.166 25.46 686.486 24.86C685.846 24.22 685.526 23.42 685.526 22.46C685.526 21.5 685.846 20.72 686.486 20.12C687.166 19.48 687.986 19.16 688.946 19.16C689.906 19.16 690.706 19.5 691.346 20.18C692.026 20.82 692.366 21.62 692.366 22.58V27.56C692.366 30.6 690.866 32.12 687.866 32.12H686.366ZM712.79 62.84C709.27 62.84 706.25 62 703.73 60.32C701.25 58.64 699.73 55.86 699.17 51.98L702.71 51.32C703.03 53.44 703.67 55.12 704.63 56.36C705.63 57.56 706.83 58.42 708.23 58.94C709.67 59.46 711.19 59.72 712.79 59.72C715.19 59.72 717.11 59.24 718.55 58.28C720.03 57.28 720.77 55.92 720.77 54.2C720.77 52.44 720.07 51.22 718.67 50.54C717.31 49.86 715.49 49.32 713.21 48.92L710.45 48.44C708.61 48.12 706.95 47.64 705.47 47C703.99 46.32 702.81 45.42 701.93 44.3C701.09 43.18 700.67 41.78 700.67 40.1C700.67 37.58 701.65 35.6 703.61 34.16C705.61 32.72 708.25 32 711.53 32C714.85 32 717.51 32.76 719.51 34.28C721.55 35.76 722.83 37.92 723.35 40.76L719.99 41.48C719.59 39.16 718.63 37.52 717.11 36.56C715.63 35.6 713.77 35.12 711.53 35.12C709.33 35.12 707.57 35.54 706.25 36.38C704.93 37.22 704.27 38.46 704.27 40.1C704.27 41.7 704.87 42.88 706.07 43.64C707.27 44.36 708.91 44.9 710.99 45.26L713.75 45.74C715.75 46.06 717.55 46.54 719.15 47.18C720.75 47.78 722.01 48.64 722.93 49.76C723.89 50.88 724.37 52.36 724.37 54.2C724.37 56.96 723.33 59.1 721.25 60.62C719.17 62.1 716.35 62.84 712.79 62.84ZM743.957 62L757.697 20H764.537L778.277 62H774.257L770.657 50.84H751.577L747.977 62H743.957ZM752.657 47.36H769.577L761.477 22.28H760.757L752.657 47.36ZM785.113 62V20H788.953V62H785.113Z" fill="#32006D"/>
</svg>
