<svg width="766" height="676" viewBox="0 0 766 676" fill="none" xmlns="http://www.w3.org/2000/svg">
<circle cx="382.662" cy="338.001" r="338.001" fill="#EA7DFF"/>
<path d="M223.938 317.461C219.885 317.461 216.258 316.741 213.058 315.301C209.858 313.861 207.325 311.701 205.458 308.821C203.645 305.888 202.738 302.234 202.738 297.861V296.181H209.378V297.861C209.378 302.501 210.738 305.968 213.458 308.261C216.178 310.501 219.672 311.621 223.938 311.621C228.312 311.621 231.645 310.634 233.938 308.661C236.232 306.688 237.378 304.208 237.378 301.221C237.378 299.141 236.845 297.488 235.778 296.261C234.765 295.034 233.325 294.048 231.458 293.301C229.592 292.501 227.405 291.808 224.898 291.221L220.738 290.181C217.485 289.328 214.605 288.288 212.098 287.061C209.592 285.834 207.618 284.234 206.178 282.261C204.792 280.234 204.098 277.648 204.098 274.501C204.098 271.354 204.872 268.634 206.418 266.341C208.018 264.048 210.232 262.288 213.058 261.061C215.938 259.834 219.245 259.221 222.978 259.221C226.765 259.221 230.152 259.888 233.138 261.221C236.178 262.501 238.552 264.421 240.258 266.981C242.018 269.488 242.898 272.661 242.898 276.501V279.861H236.258V276.501C236.258 273.781 235.672 271.594 234.498 269.941C233.378 268.288 231.805 267.061 229.778 266.261C227.805 265.461 225.538 265.061 222.978 265.061C219.298 265.061 216.338 265.888 214.098 267.541C211.858 269.141 210.738 271.434 210.738 274.421C210.738 276.394 211.218 277.994 212.178 279.221C213.138 280.448 214.498 281.461 216.258 282.261C218.018 283.008 220.125 283.674 222.578 284.261L226.738 285.301C229.992 285.994 232.898 286.954 235.458 288.181C238.072 289.354 240.152 290.981 241.698 293.061C243.245 295.088 244.018 297.754 244.018 301.061C244.018 304.368 243.192 307.248 241.538 309.701C239.885 312.154 237.538 314.074 234.498 315.461C231.512 316.794 227.992 317.461 223.938 317.461ZM272.601 317.461C268.814 317.461 265.401 316.661 262.361 315.061C259.374 313.408 257.001 311.061 255.241 308.021C253.534 304.981 252.681 301.381 252.681 297.221V296.341C252.681 292.128 253.534 288.528 255.241 285.541C257.001 282.501 259.374 280.181 262.361 278.581C265.401 276.928 268.814 276.101 272.601 276.101C276.334 276.101 279.508 276.794 282.121 278.181C284.788 279.568 286.868 281.408 288.361 283.701C289.908 285.994 290.894 288.448 291.321 291.061L285.161 292.341C284.894 290.421 284.254 288.661 283.241 287.061C282.281 285.461 280.921 284.181 279.161 283.221C277.401 282.261 275.241 281.781 272.681 281.781C270.068 281.781 267.721 282.368 265.641 283.541C263.614 284.714 261.988 286.394 260.761 288.581C259.588 290.768 259.001 293.381 259.001 296.421V297.141C259.001 300.181 259.588 302.794 260.761 304.981C261.988 307.168 263.614 308.848 265.641 310.021C267.721 311.194 270.068 311.781 272.681 311.781C276.574 311.781 279.534 310.768 281.561 308.741C283.641 306.714 284.921 304.208 285.401 301.221L291.641 302.581C291.054 305.141 289.988 307.568 288.441 309.861C286.894 312.154 284.788 313.994 282.121 315.381C279.508 316.768 276.334 317.461 272.601 317.461ZM302.413 316.341V260.341H308.733V283.461H309.853C310.387 282.288 311.187 281.194 312.253 280.181C313.373 279.114 314.787 278.234 316.493 277.541C318.253 276.848 320.467 276.501 323.133 276.501C326.067 276.501 328.68 277.141 330.973 278.421C333.32 279.648 335.187 281.461 336.573 283.861C337.96 286.208 338.653 289.141 338.653 292.661V316.341H332.333V293.141C332.333 289.248 331.347 286.421 329.373 284.661C327.453 282.901 324.84 282.021 321.533 282.021C317.747 282.021 314.653 283.248 312.253 285.701C309.907 288.154 308.733 291.808 308.733 296.661V316.341H302.413ZM369.556 317.461C365.609 317.461 362.116 316.634 359.076 314.981C356.089 313.328 353.743 311.008 352.036 308.021C350.383 304.981 349.556 301.408 349.556 297.301V296.261C349.556 292.208 350.383 288.661 352.036 285.621C353.743 282.581 356.089 280.234 359.076 278.581C362.116 276.928 365.609 276.101 369.556 276.101C373.503 276.101 376.969 276.928 379.956 278.581C382.996 280.234 385.343 282.581 386.996 285.621C388.703 288.661 389.556 292.208 389.556 296.261V297.301C389.556 301.408 388.703 304.981 386.996 308.021C385.343 311.008 382.996 313.328 379.956 314.981C376.969 316.634 373.503 317.461 369.556 317.461ZM369.556 311.781C373.716 311.781 377.023 310.474 379.476 307.861C381.983 305.194 383.236 301.621 383.236 297.141V296.421C383.236 291.941 381.983 288.394 379.476 285.781C377.023 283.114 373.716 281.781 369.556 281.781C365.449 281.781 362.143 283.114 359.636 285.781C357.129 288.394 355.876 291.941 355.876 296.421V297.141C355.876 301.621 357.129 305.194 359.636 307.861C362.143 310.474 365.449 311.781 369.556 311.781ZM419.009 317.461C415.062 317.461 411.569 316.634 408.529 314.981C405.542 313.328 403.196 311.008 401.489 308.021C399.836 304.981 399.009 301.408 399.009 297.301V296.261C399.009 292.208 399.836 288.661 401.489 285.621C403.196 282.581 405.542 280.234 408.529 278.581C411.569 276.928 415.062 276.101 419.009 276.101C422.956 276.101 426.422 276.928 429.409 278.581C432.449 280.234 434.796 282.581 436.449 285.621C438.156 288.661 439.009 292.208 439.009 296.261V297.301C439.009 301.408 438.156 304.981 436.449 308.021C434.796 311.008 432.449 313.328 429.409 314.981C426.422 316.634 422.956 317.461 419.009 317.461ZM419.009 311.781C423.169 311.781 426.476 310.474 428.929 307.861C431.436 305.194 432.689 301.621 432.689 297.141V296.421C432.689 291.941 431.436 288.394 428.929 285.781C426.476 283.114 423.169 281.781 419.009 281.781C414.902 281.781 411.596 283.114 409.089 285.781C406.582 288.394 405.329 291.941 405.329 296.421V297.141C405.329 301.621 406.582 305.194 409.089 307.861C411.596 310.474 414.902 311.781 419.009 311.781ZM450.382 316.341V260.341H456.702V316.341H450.382ZM508.618 317.461C504.672 317.461 501.178 316.634 498.138 314.981C495.152 313.328 492.805 311.008 491.098 308.021C489.445 304.981 488.618 301.408 488.618 297.301V296.261C488.618 292.208 489.445 288.661 491.098 285.621C492.805 282.581 495.152 280.234 498.138 278.581C501.178 276.928 504.672 276.101 508.618 276.101C512.565 276.101 516.032 276.928 519.018 278.581C522.058 280.234 524.405 282.581 526.058 285.621C527.765 288.661 528.618 292.208 528.618 296.261V297.301C528.618 301.408 527.765 304.981 526.058 308.021C524.405 311.008 522.058 313.328 519.018 314.981C516.032 316.634 512.565 317.461 508.618 317.461ZM508.618 311.781C512.778 311.781 516.085 310.474 518.538 307.861C521.045 305.194 522.298 301.621 522.298 297.141V296.421C522.298 291.941 521.045 288.394 518.538 285.781C516.085 283.114 512.778 281.781 508.618 281.781C504.512 281.781 501.205 283.114 498.698 285.781C496.192 288.394 494.938 291.941 494.938 296.421V297.141C494.938 301.621 496.192 305.194 498.698 307.861C501.205 310.474 504.512 311.781 508.618 311.781ZM546.031 316.341V282.741H534.031V277.221H546.031V267.221C546.031 265.088 546.618 263.408 547.791 262.181C549.018 260.954 550.751 260.341 552.991 260.341H562.831V265.781H554.751C553.151 265.781 552.351 266.581 552.351 268.181V277.221H564.671V282.741H552.351V316.341H546.031ZM138.238 396.341V346.421H120.238V340.341H162.958V346.421H144.958V396.341H138.238ZM181.861 397.461C177.914 397.461 174.421 396.634 171.381 394.981C168.394 393.328 166.047 391.008 164.341 388.021C162.687 384.981 161.861 381.408 161.861 377.301V376.261C161.861 372.208 162.687 368.661 164.341 365.621C166.047 362.581 168.394 360.234 171.381 358.581C174.421 356.928 177.914 356.101 181.861 356.101C185.807 356.101 189.274 356.928 192.261 358.581C195.301 360.234 197.647 362.581 199.301 365.621C201.007 368.661 201.861 372.208 201.861 376.261V377.301C201.861 381.408 201.007 384.981 199.301 388.021C197.647 391.008 195.301 393.328 192.261 394.981C189.274 396.634 185.807 397.461 181.861 397.461ZM181.861 391.781C186.021 391.781 189.327 390.474 191.781 387.861C194.287 385.194 195.541 381.621 195.541 377.141V376.421C195.541 371.941 194.287 368.394 191.781 365.781C189.327 363.114 186.021 361.781 181.861 361.781C177.754 361.781 174.447 363.114 171.941 365.781C169.434 368.394 168.181 371.941 168.181 376.421V377.141C168.181 381.621 169.434 385.194 171.941 387.861C174.447 390.474 177.754 391.781 181.861 391.781ZM213.234 396.341V357.221H219.394V362.101H220.514C221.26 360.714 222.487 359.434 224.194 358.261C225.9 357.088 228.3 356.501 231.394 356.501C234.434 356.501 236.887 357.168 238.754 358.501C240.674 359.834 242.06 361.461 242.914 363.381H244.034C244.94 361.461 246.3 359.834 248.114 358.501C249.98 357.168 252.567 356.501 255.874 356.501C258.487 356.501 260.78 357.034 262.754 358.101C264.727 359.168 266.274 360.714 267.394 362.741C268.567 364.714 269.154 367.088 269.154 369.861V396.341H262.834V370.421C262.834 367.808 262.06 365.754 260.514 364.261C259.02 362.714 256.914 361.941 254.194 361.941C251.314 361.941 248.94 362.874 247.074 364.741C245.26 366.608 244.354 369.301 244.354 372.821V396.341H238.034V370.421C238.034 367.808 237.26 365.754 235.714 364.261C234.22 362.714 232.114 361.941 229.394 361.941C226.514 361.941 224.14 362.874 222.274 364.741C220.46 366.608 219.554 369.301 219.554 372.821V396.341H213.234ZM300.142 397.461C296.195 397.461 292.702 396.634 289.662 394.981C286.675 393.328 284.329 391.008 282.622 388.021C280.969 384.981 280.142 381.408 280.142 377.301V376.261C280.142 372.208 280.969 368.661 282.622 365.621C284.329 362.581 286.675 360.234 289.662 358.581C292.702 356.928 296.195 356.101 300.142 356.101C304.089 356.101 307.555 356.928 310.542 358.581C313.582 360.234 315.929 362.581 317.582 365.621C319.289 368.661 320.142 372.208 320.142 376.261V377.301C320.142 381.408 319.289 384.981 317.582 388.021C315.929 391.008 313.582 393.328 310.542 394.981C307.555 396.634 304.089 397.461 300.142 397.461ZM300.142 391.781C304.302 391.781 307.609 390.474 310.062 387.861C312.569 385.194 313.822 381.621 313.822 377.141V376.421C313.822 371.941 312.569 368.394 310.062 365.781C307.609 363.114 304.302 361.781 300.142 361.781C296.035 361.781 292.729 363.114 290.222 365.781C287.715 368.394 286.462 371.941 286.462 376.421V377.141C286.462 381.621 287.715 385.194 290.222 387.861C292.729 390.474 296.035 391.781 300.142 391.781ZM331.515 396.341V357.221H337.675V362.021H338.795C339.488 360.314 340.555 359.061 341.995 358.261C343.435 357.461 345.328 357.061 347.675 357.061H352.315V362.821H347.275C344.448 362.821 342.155 363.621 340.395 365.221C338.688 366.768 337.835 369.194 337.835 372.501V396.341H331.515ZM361.671 396.341V357.221H367.831V362.021H368.951C369.645 360.314 370.711 359.061 372.151 358.261C373.591 357.461 375.485 357.061 377.831 357.061H382.471V362.821H377.431C374.605 362.821 372.311 363.621 370.551 365.221C368.845 366.768 367.991 369.194 367.991 372.501V396.341H361.671ZM408.501 397.461C404.555 397.461 401.061 396.634 398.021 394.981C395.035 393.328 392.688 391.008 390.981 388.021C389.328 384.981 388.501 381.408 388.501 377.301V376.261C388.501 372.208 389.328 368.661 390.981 365.621C392.688 362.581 395.035 360.234 398.021 358.581C401.061 356.928 404.555 356.101 408.501 356.101C412.448 356.101 415.915 356.928 418.901 358.581C421.941 360.234 424.288 362.581 425.941 365.621C427.648 368.661 428.501 372.208 428.501 376.261V377.301C428.501 381.408 427.648 384.981 425.941 388.021C424.288 391.008 421.941 393.328 418.901 394.981C415.915 396.634 412.448 397.461 408.501 397.461ZM408.501 391.781C412.661 391.781 415.968 390.474 418.421 387.861C420.928 385.194 422.181 381.621 422.181 377.141V376.421C422.181 371.941 420.928 368.394 418.421 365.781C415.968 363.114 412.661 361.781 408.501 361.781C404.395 361.781 401.088 363.114 398.581 365.781C396.075 368.394 394.821 371.941 394.821 376.421V377.141C394.821 381.621 396.075 385.194 398.581 387.861C401.088 390.474 404.395 391.781 408.501 391.781ZM444.533 396.341L436.693 357.221H443.093L449.573 392.101H450.693L459.253 357.221H469.733L478.293 392.101H479.413L485.893 357.221H492.293L484.453 396.341H473.653L465.013 361.461H463.973L455.333 396.341H444.533ZM502.516 358.901V354.901H504.836C506.756 354.901 507.716 353.941 507.716 352.021V349.461H506.596C505.049 349.461 503.742 348.981 502.676 348.021C501.662 347.061 501.156 345.861 501.156 344.421C501.156 342.874 501.662 341.621 502.676 340.661C503.742 339.701 505.049 339.221 506.596 339.221C508.142 339.221 509.422 339.728 510.436 340.741C511.449 341.754 511.956 343.034 511.956 344.581V352.021C511.956 356.608 509.662 358.901 505.076 358.901H502.516ZM538.681 397.461C533.828 397.461 529.721 396.341 526.361 394.101C523.055 391.861 521.055 388.314 520.361 383.461L526.361 382.101C526.788 384.661 527.588 386.688 528.761 388.181C529.935 389.621 531.375 390.661 533.081 391.301C534.841 391.888 536.708 392.181 538.681 392.181C541.615 392.181 543.935 391.594 545.641 390.421C547.348 389.248 548.201 387.674 548.201 385.701C548.201 383.674 547.375 382.261 545.721 381.461C544.121 380.608 541.908 379.914 539.081 379.381L535.801 378.821C533.295 378.394 531.001 377.728 528.921 376.821C526.841 375.914 525.188 374.688 523.961 373.141C522.735 371.594 522.121 369.648 522.121 367.301C522.121 363.781 523.481 361.034 526.201 359.061C528.921 357.088 532.521 356.101 537.001 356.101C541.428 356.101 545.001 357.114 547.721 359.141C550.495 361.114 552.281 363.914 553.081 367.541L547.161 369.061C546.681 366.234 545.535 364.261 543.721 363.141C541.908 361.968 539.668 361.381 537.001 361.381C534.335 361.381 532.228 361.888 530.681 362.901C529.135 363.861 528.361 365.301 528.361 367.221C528.361 369.088 529.081 370.474 530.521 371.381C532.015 372.234 533.988 372.874 536.441 373.301L539.721 373.861C542.495 374.341 544.975 375.008 547.161 375.861C549.401 376.661 551.161 377.834 552.441 379.381C553.775 380.928 554.441 382.954 554.441 385.461C554.441 389.301 553.001 392.261 550.121 394.341C547.295 396.421 543.481 397.461 538.681 397.461ZM580 396.341L597.28 340.341H609.12L626.4 396.341H619.44L615.12 382.181H591.28L586.96 396.341H580ZM592.96 376.101H613.36L603.76 344.421H602.64L592.96 376.101ZM634.791 396.341V340.341H641.511V396.341H634.791Z" fill="white"/>
</svg>
