<svg width="592" height="200" viewBox="0 0 592 200" fill="none" xmlns="http://www.w3.org/2000/svg">
<g clip-path="url(#clip0_104_148)">
<path d="M592 0H0V200H592V0Z" fill="#22113E"/>
<path d="M100 160C133.137 160 160 133.137 160 100C160 66.8629 133.137 40 100 40C66.8629 40 40 66.8629 40 100C40 133.137 66.8629 160 100 160Z" fill="#EA7DFF"/>
<path d="M86.8156 109L93.7276 86.6H98.4636L105.376 109H102.592L100.864 103.336H91.3276L89.5996 109H86.8156ZM91.9996 100.904H100.16L96.3196 88.232H95.8716L91.9996 100.904ZM108.732 109V86.6H111.42V109H108.732Z" fill="#22113E"/>
<path opacity="0.15" d="M178 36V164" stroke="white" stroke-width="0.75"/>
<path d="M209.008 87.224C208.197 87.224 207.472 87.08 206.832 86.792C206.192 86.504 205.685 86.072 205.312 85.496C204.949 84.9093 204.768 84.1787 204.768 83.304V82.968H206.096V83.304C206.096 84.232 206.368 84.9253 206.912 85.384C207.456 85.832 208.155 86.056 209.008 86.056C209.883 86.056 210.549 85.8587 211.008 85.464C211.467 85.0693 211.696 84.5733 211.696 83.976C211.696 83.56 211.589 83.2293 211.376 82.984C211.173 82.7387 210.885 82.5413 210.512 82.392C210.139 82.232 209.701 82.0933 209.2 81.976L208.368 81.768C207.717 81.5973 207.141 81.3893 206.64 81.144C206.139 80.8987 205.744 80.5787 205.456 80.184C205.179 79.7787 205.04 79.2613 205.04 78.632C205.04 78.0027 205.195 77.4587 205.504 77C205.824 76.5413 206.267 76.1893 206.832 75.944C207.408 75.6987 208.069 75.576 208.816 75.576C209.573 75.576 210.251 75.7093 210.848 75.976C211.456 76.232 211.931 76.616 212.272 77.128C212.624 77.6293 212.8 78.264 212.8 79.032V79.704H211.472V79.032C211.472 78.488 211.355 78.0507 211.12 77.72C210.896 77.3893 210.581 77.144 210.176 76.984C209.781 76.824 209.328 76.744 208.816 76.744C208.08 76.744 207.488 76.9093 207.04 77.24C206.592 77.56 206.368 78.0187 206.368 78.616C206.368 79.0107 206.464 79.3307 206.656 79.576C206.848 79.8213 207.12 80.024 207.472 80.184C207.824 80.3333 208.245 80.4667 208.736 80.584L209.568 80.792C210.219 80.9307 210.8 81.1227 211.312 81.368C211.835 81.6027 212.251 81.928 212.56 82.344C212.869 82.7493 213.024 83.2827 213.024 83.944C213.024 84.6053 212.859 85.1813 212.528 85.672C212.197 86.1627 211.728 86.5467 211.12 86.824C210.523 87.0907 209.819 87.224 209.008 87.224ZM219.141 87.224C217.807 87.224 216.746 86.84 215.957 86.072C215.167 85.2933 214.773 84.1627 214.773 82.68V80.12C214.773 78.6373 215.167 77.512 215.957 76.744C216.746 75.9653 217.807 75.576 219.141 75.576C220.463 75.576 221.477 75.944 222.181 76.68C222.895 77.416 223.253 78.424 223.253 79.704V79.784H221.925V79.656C221.925 78.8133 221.695 78.1253 221.237 77.592C220.789 77.048 220.09 76.776 219.141 76.776C218.191 76.776 217.45 77.0693 216.917 77.656C216.383 78.232 216.117 79.0427 216.117 80.088V82.712C216.117 83.7573 216.383 84.5733 216.917 85.16C217.45 85.736 218.191 86.024 219.141 86.024C220.09 86.024 220.789 85.7573 221.237 85.224C221.695 84.68 221.925 83.9867 221.925 83.144V82.888H223.253V83.096C223.253 84.376 222.895 85.384 222.181 86.12C221.477 86.856 220.463 87.224 219.141 87.224ZM225.358 87V75.8H226.702V80.776H231.95V75.8H233.294V87H231.95V81.992H226.702V87H225.358ZM239.922 87.224C238.589 87.224 237.522 86.84 236.722 86.072C235.933 85.2933 235.538 84.1627 235.538 82.68V80.12C235.538 78.6373 235.933 77.512 236.722 76.744C237.522 75.9653 238.589 75.576 239.922 75.576C241.266 75.576 242.333 75.9653 243.122 76.744C243.922 77.512 244.322 78.6373 244.322 80.12V82.68C244.322 84.1627 243.922 85.2933 243.122 86.072C242.333 86.84 241.266 87.224 239.922 87.224ZM239.922 86.024C240.893 86.024 241.645 85.736 242.178 85.16C242.711 84.5733 242.978 83.7627 242.978 82.728V80.072C242.978 79.0373 242.711 78.232 242.178 77.656C241.645 77.0693 240.893 76.776 239.922 76.776C238.962 76.776 238.215 77.0693 237.682 77.656C237.149 78.232 236.882 79.0373 236.882 80.072V82.728C236.882 83.7627 237.149 84.5733 237.682 85.16C238.215 85.736 238.962 86.024 239.922 86.024ZM250.625 87.224C249.292 87.224 248.225 86.84 247.425 86.072C246.636 85.2933 246.241 84.1627 246.241 82.68V80.12C246.241 78.6373 246.636 77.512 247.425 76.744C248.225 75.9653 249.292 75.576 250.625 75.576C251.969 75.576 253.036 75.9653 253.825 76.744C254.625 77.512 255.025 78.6373 255.025 80.12V82.68C255.025 84.1627 254.625 85.2933 253.825 86.072C253.036 86.84 251.969 87.224 250.625 87.224ZM250.625 86.024C251.596 86.024 252.348 85.736 252.881 85.16C253.415 84.5733 253.681 83.7627 253.681 82.728V80.072C253.681 79.0373 253.415 78.232 252.881 77.656C252.348 77.0693 251.596 76.776 250.625 76.776C249.665 76.776 248.919 77.0693 248.385 77.656C247.852 78.232 247.585 79.0373 247.585 80.072V82.728C247.585 83.7627 247.852 84.5733 248.385 85.16C248.919 85.736 249.665 86.024 250.625 86.024ZM257.264 87V75.8H258.608V85.784H264.272V87H257.264ZM273.75 87.224C272.417 87.224 271.35 86.84 270.55 86.072C269.761 85.2933 269.366 84.1627 269.366 82.68V80.12C269.366 78.6373 269.761 77.512 270.55 76.744C271.35 75.9653 272.417 75.576 273.75 75.576C275.094 75.576 276.161 75.9653 276.95 76.744C277.75 77.512 278.15 78.6373 278.15 80.12V82.68C278.15 84.1627 277.75 85.2933 276.95 86.072C276.161 86.84 275.094 87.224 273.75 87.224ZM273.75 86.024C274.721 86.024 275.473 85.736 276.006 85.16C276.54 84.5733 276.806 83.7627 276.806 82.728V80.072C276.806 79.0373 276.54 78.232 276.006 77.656C275.473 77.0693 274.721 76.776 273.75 76.776C272.79 76.776 272.044 77.0693 271.51 77.656C270.977 78.232 270.71 79.0373 270.71 80.072V82.728C270.71 83.7627 270.977 84.5733 271.51 85.16C272.044 85.736 272.79 86.024 273.75 86.024ZM280.389 87V75.8H287.157V77.016H281.733V80.776H286.725V81.992H281.733V87H280.389Z" fill="#CAD8D8"/>
<path d="M215.088 129V101.544H205.188V98.2H228.684V101.544H218.784V129H215.088ZM239.08 129.616C236.91 129.616 234.988 129.161 233.316 128.252C231.674 127.343 230.383 126.067 229.444 124.424C228.535 122.752 228.08 120.787 228.08 118.528V117.956C228.08 115.727 228.535 113.776 229.444 112.104C230.383 110.432 231.674 109.141 233.316 108.232C234.988 107.323 236.91 106.868 239.08 106.868C241.251 106.868 243.158 107.323 244.8 108.232C246.472 109.141 247.763 110.432 248.672 112.104C249.611 113.776 250.08 115.727 250.08 117.956V118.528C250.08 120.787 249.611 122.752 248.672 124.424C247.763 126.067 246.472 127.343 244.8 128.252C243.158 129.161 241.251 129.616 239.08 129.616ZM239.08 126.492C241.368 126.492 243.187 125.773 244.536 124.336C245.915 122.869 246.604 120.904 246.604 118.44V118.044C246.604 115.58 245.915 113.629 244.536 112.192C243.187 110.725 241.368 109.992 239.08 109.992C236.822 109.992 235.003 110.725 233.624 112.192C232.246 113.629 231.556 115.58 231.556 118.044V118.44C231.556 120.904 232.246 122.869 233.624 124.336C235.003 125.773 236.822 126.492 239.08 126.492ZM256.336 129V107.484H259.724V110.168H260.34C260.75 109.405 261.425 108.701 262.364 108.056C263.302 107.411 264.622 107.088 266.324 107.088C267.996 107.088 269.345 107.455 270.372 108.188C271.428 108.921 272.19 109.816 272.66 110.872H273.276C273.774 109.816 274.522 108.921 275.52 108.188C276.546 107.455 277.969 107.088 279.788 107.088C281.225 107.088 282.486 107.381 283.572 107.968C284.657 108.555 285.508 109.405 286.124 110.52C286.769 111.605 287.092 112.911 287.092 114.436V129H283.616V114.744C283.616 113.307 283.19 112.177 282.34 111.356C281.518 110.505 280.36 110.08 278.864 110.08C277.28 110.08 275.974 110.593 274.948 111.62C273.95 112.647 273.452 114.128 273.452 116.064V129H269.976V114.744C269.976 113.307 269.55 112.177 268.7 111.356C267.878 110.505 266.72 110.08 265.224 110.08C263.64 110.08 262.334 110.593 261.308 111.62C260.31 112.647 259.812 114.128 259.812 116.064V129H256.336ZM304.135 129.616C301.964 129.616 300.043 129.161 298.371 128.252C296.728 127.343 295.438 126.067 294.499 124.424C293.59 122.752 293.135 120.787 293.135 118.528V117.956C293.135 115.727 293.59 113.776 294.499 112.104C295.438 110.432 296.728 109.141 298.371 108.232C300.043 107.323 301.964 106.868 304.135 106.868C306.306 106.868 308.212 107.323 309.855 108.232C311.527 109.141 312.818 110.432 313.727 112.104C314.666 113.776 315.135 115.727 315.135 117.956V118.528C315.135 120.787 314.666 122.752 313.727 124.424C312.818 126.067 311.527 127.343 309.855 128.252C308.212 129.161 306.306 129.616 304.135 129.616ZM304.135 126.492C306.423 126.492 308.242 125.773 309.591 124.336C310.97 122.869 311.659 120.904 311.659 118.44V118.044C311.659 115.58 310.97 113.629 309.591 112.192C308.242 110.725 306.423 109.992 304.135 109.992C301.876 109.992 300.058 110.725 298.679 112.192C297.3 113.629 296.611 115.58 296.611 118.044V118.44C296.611 120.904 297.3 122.869 298.679 124.336C300.058 125.773 301.876 126.492 304.135 126.492ZM321.39 129V107.484H324.778V110.124H325.394C325.776 109.185 326.362 108.496 327.154 108.056C327.946 107.616 328.988 107.396 330.278 107.396H332.83V110.564H330.058C328.504 110.564 327.242 111.004 326.274 111.884C325.336 112.735 324.866 114.069 324.866 115.888V129H321.39ZM337.976 129V107.484H341.364V110.124H341.98C342.362 109.185 342.948 108.496 343.74 108.056C344.532 107.616 345.574 107.396 346.864 107.396H349.416V110.564H346.644C345.09 110.564 343.828 111.004 342.86 111.884C341.922 112.735 341.452 114.069 341.452 115.888V129H337.976ZM363.733 129.616C361.562 129.616 359.641 129.161 357.969 128.252C356.326 127.343 355.035 126.067 354.097 124.424C353.187 122.752 352.733 120.787 352.733 118.528V117.956C352.733 115.727 353.187 113.776 354.097 112.104C355.035 110.432 356.326 109.141 357.969 108.232C359.641 107.323 361.562 106.868 363.733 106.868C365.903 106.868 367.81 107.323 369.453 108.232C371.125 109.141 372.415 110.432 373.325 112.104C374.263 113.776 374.733 115.727 374.733 117.956V118.528C374.733 120.787 374.263 122.752 373.325 124.424C372.415 126.067 371.125 127.343 369.453 128.252C367.81 129.161 365.903 129.616 363.733 129.616ZM363.733 126.492C366.021 126.492 367.839 125.773 369.189 124.336C370.567 122.869 371.257 120.904 371.257 118.44V118.044C371.257 115.58 370.567 113.629 369.189 112.192C367.839 110.725 366.021 109.992 363.733 109.992C361.474 109.992 359.655 110.725 358.277 112.192C356.898 113.629 356.209 115.58 356.209 118.044V118.44C356.209 120.904 356.898 122.869 358.277 124.336C359.655 125.773 361.474 126.492 363.733 126.492ZM383.55 129L379.238 107.484H382.758L386.322 126.668H386.938L391.646 107.484H397.41L402.118 126.668H402.734L406.298 107.484H409.818L405.506 129H399.566L394.814 109.816H394.242L389.49 129H383.55ZM415.441 108.408V106.208H416.717C417.773 106.208 418.301 105.68 418.301 104.624V103.216H417.685C416.834 103.216 416.115 102.952 415.529 102.424C414.971 101.896 414.693 101.236 414.693 100.444C414.693 99.5933 414.971 98.904 415.529 98.376C416.115 97.848 416.834 97.584 417.685 97.584C418.535 97.584 419.239 97.8627 419.797 98.42C420.354 98.9773 420.633 99.6813 420.633 100.532V104.624C420.633 107.147 419.371 108.408 416.849 108.408H415.441ZM435.332 129.616C432.662 129.616 430.404 129 428.556 127.768C426.737 126.536 425.637 124.585 425.256 121.916L428.556 121.168C428.79 122.576 429.23 123.691 429.876 124.512C430.521 125.304 431.313 125.876 432.252 126.228C433.22 126.551 434.246 126.712 435.332 126.712C436.945 126.712 438.221 126.389 439.16 125.744C440.098 125.099 440.568 124.233 440.568 123.148C440.568 122.033 440.113 121.256 439.204 120.816C438.324 120.347 437.106 119.965 435.552 119.672L433.748 119.364C432.369 119.129 431.108 118.763 429.964 118.264C428.82 117.765 427.91 117.091 427.236 116.24C426.561 115.389 426.224 114.319 426.224 113.028C426.224 111.092 426.972 109.581 428.468 108.496C429.964 107.411 431.944 106.868 434.408 106.868C436.842 106.868 438.808 107.425 440.304 108.54C441.829 109.625 442.812 111.165 443.252 113.16L439.996 113.996C439.732 112.441 439.101 111.356 438.104 110.74C437.106 110.095 435.874 109.772 434.408 109.772C432.941 109.772 431.782 110.051 430.932 110.608C430.081 111.136 429.656 111.928 429.656 112.984C429.656 114.011 430.052 114.773 430.844 115.272C431.665 115.741 432.75 116.093 434.1 116.328L435.904 116.636C437.429 116.9 438.793 117.267 439.996 117.736C441.228 118.176 442.196 118.821 442.9 119.672C443.633 120.523 444 121.637 444 123.016C444 125.128 443.208 126.756 441.624 127.9C440.069 129.044 437.972 129.616 435.332 129.616ZM458.057 129L467.561 98.2H474.073L483.577 129H479.749L477.373 121.212H464.261L461.885 129H458.057ZM465.185 117.868H476.405L471.125 100.444H470.509L465.185 117.868ZM488.192 129V98.2H491.888V129H488.192Z" fill="white"/>
</g>
<defs>
<clipPath id="clip0_104_148">
<rect width="592" height="200" fill="white"/>
</clipPath>
</defs>
</svg>
