<svg width="800" height="200" viewBox="0 0 800 200" fill="none" xmlns="http://www.w3.org/2000/svg">
<g clip-path="url(#clip0_104_140)">
<path d="M800 0H0V200H800V0Z" fill="white"/>
<path d="M100 160C133.137 160 160 133.137 160 100C160 66.8629 133.137 40 100 40C66.8629 40 40 66.8629 40 100C40 133.137 66.8629 160 100 160Z" fill="#EA7DFF"/>
<path d="M86.8156 109L93.7276 86.6H98.4636L105.376 109H102.592L100.864 103.336H91.3276L89.5996 109H86.8156ZM91.9996 100.904H100.16L96.3196 88.232H95.8716L91.9996 100.904ZM108.732 109V86.6H111.42V109H108.732Z" fill="#22113E"/>
<path d="M178 36V164" stroke="#EEEEEE"/>
<path d="M208.069 84.182C207.41 84.182 206.821 84.065 206.301 83.831C205.781 83.597 205.369 83.246 205.066 82.778C204.771 82.3013 204.624 81.7077 204.624 80.997V80.724H205.703V80.997C205.703 81.751 205.924 82.3143 206.366 82.687C206.808 83.051 207.376 83.233 208.069 83.233C208.78 83.233 209.321 83.0727 209.694 82.752C210.067 82.4313 210.253 82.0283 210.253 81.543C210.253 81.205 210.166 80.9363 209.993 80.737C209.828 80.5377 209.594 80.3773 209.291 80.256C208.988 80.126 208.632 80.0133 208.225 79.918L207.549 79.749C207.02 79.6103 206.552 79.4413 206.145 79.242C205.738 79.0427 205.417 78.7827 205.183 78.462C204.958 78.1327 204.845 77.7123 204.845 77.201C204.845 76.6897 204.971 76.2477 205.222 75.875C205.482 75.5023 205.842 75.2163 206.301 75.017C206.769 74.8177 207.306 74.718 207.913 74.718C208.528 74.718 209.079 74.8263 209.564 75.043C210.058 75.251 210.444 75.563 210.721 75.979C211.007 76.3863 211.15 76.902 211.15 77.526V78.072H210.071V77.526C210.071 77.084 209.976 76.7287 209.785 76.46C209.603 76.1913 209.347 75.992 209.018 75.862C208.697 75.732 208.329 75.667 207.913 75.667C207.315 75.667 206.834 75.8013 206.47 76.07C206.106 76.33 205.924 76.7027 205.924 77.188C205.924 77.5087 206.002 77.7687 206.158 77.968C206.314 78.1673 206.535 78.332 206.821 78.462C207.107 78.5833 207.449 78.6917 207.848 78.787L208.524 78.956C209.053 79.0687 209.525 79.2247 209.941 79.424C210.366 79.6147 210.704 79.879 210.955 80.217C211.206 80.5463 211.332 80.9797 211.332 81.517C211.332 82.0543 211.198 82.5223 210.929 82.921C210.66 83.3197 210.279 83.6317 209.785 83.857C209.3 84.0737 208.728 84.182 208.069 84.182ZM216.302 84.182C215.218 84.182 214.356 83.87 213.715 83.246C213.073 82.6133 212.753 81.6947 212.753 80.49V78.41C212.753 77.2053 213.073 76.291 213.715 75.667C214.356 75.0343 215.218 74.718 216.302 74.718C217.376 74.718 218.2 75.017 218.772 75.615C219.352 76.213 219.643 77.032 219.643 78.072V78.137H218.564V78.033C218.564 77.3483 218.377 76.7893 218.005 76.356C217.641 75.914 217.073 75.693 216.302 75.693C215.53 75.693 214.928 75.9313 214.495 76.408C214.061 76.876 213.845 77.5347 213.845 78.384V80.516C213.845 81.3653 214.061 82.0283 214.495 82.505C214.928 82.973 215.53 83.207 216.302 83.207C217.073 83.207 217.641 82.9903 218.005 82.557C218.377 82.115 218.564 81.5517 218.564 80.867V80.659H219.643V80.828C219.643 81.868 219.352 82.687 218.772 83.285C218.2 83.883 217.376 84.182 216.302 84.182ZM221.353 84V74.9H222.445V78.943H226.709V74.9H227.801V84H226.709V79.931H222.445V84H221.353ZM233.187 84.182C232.103 84.182 231.237 83.87 230.587 83.246C229.945 82.6133 229.625 81.6947 229.625 80.49V78.41C229.625 77.2053 229.945 76.291 230.587 75.667C231.237 75.0343 232.103 74.718 233.187 74.718C234.279 74.718 235.145 75.0343 235.787 75.667C236.437 76.291 236.762 77.2053 236.762 78.41V80.49C236.762 81.6947 236.437 82.6133 235.787 83.246C235.145 83.87 234.279 84.182 233.187 84.182ZM233.187 83.207C233.975 83.207 234.586 82.973 235.02 82.505C235.453 82.0283 235.67 81.3697 235.67 80.529V78.371C235.67 77.5303 235.453 76.876 235.02 76.408C234.586 75.9313 233.975 75.693 233.187 75.693C232.407 75.693 231.8 75.9313 231.367 76.408C230.933 76.876 230.717 77.5303 230.717 78.371V80.529C230.717 81.3697 230.933 82.0283 231.367 82.505C231.8 82.973 232.407 83.207 233.187 83.207ZM241.883 84.182C240.8 84.182 239.933 83.87 239.283 83.246C238.642 82.6133 238.321 81.6947 238.321 80.49V78.41C238.321 77.2053 238.642 76.291 239.283 75.667C239.933 75.0343 240.8 74.718 241.883 74.718C242.975 74.718 243.842 75.0343 244.483 75.667C245.133 76.291 245.458 77.2053 245.458 78.41V80.49C245.458 81.6947 245.133 82.6133 244.483 83.246C243.842 83.87 242.975 84.182 241.883 84.182ZM241.883 83.207C242.672 83.207 243.283 82.973 243.716 82.505C244.149 82.0283 244.366 81.3697 244.366 80.529V78.371C244.366 77.5303 244.149 76.876 243.716 76.408C243.283 75.9313 242.672 75.693 241.883 75.693C241.103 75.693 240.496 75.9313 240.063 76.408C239.63 76.876 239.413 77.5303 239.413 78.371V80.529C239.413 81.3697 239.63 82.0283 240.063 82.505C240.496 82.973 241.103 83.207 241.883 83.207ZM247.277 84V74.9H248.369V83.012H252.971V84H247.277ZM260.672 84.182C259.589 84.182 258.722 83.87 258.072 83.246C257.431 82.6133 257.11 81.6947 257.11 80.49V78.41C257.11 77.2053 257.431 76.291 258.072 75.667C258.722 75.0343 259.589 74.718 260.672 74.718C261.764 74.718 262.631 75.0343 263.272 75.667C263.922 76.291 264.247 77.2053 264.247 78.41V80.49C264.247 81.6947 263.922 82.6133 263.272 83.246C262.631 83.87 261.764 84.182 260.672 84.182ZM260.672 83.207C261.461 83.207 262.072 82.973 262.505 82.505C262.938 82.0283 263.155 81.3697 263.155 80.529V78.371C263.155 77.5303 262.938 76.876 262.505 76.408C262.072 75.9313 261.461 75.693 260.672 75.693C259.892 75.693 259.285 75.9313 258.852 76.408C258.419 76.876 258.202 77.5303 258.202 78.371V80.529C258.202 81.3697 258.419 82.0283 258.852 82.505C259.285 82.973 259.892 83.207 260.672 83.207ZM266.066 84V74.9H271.565V75.888H267.158V78.943H271.214V79.931H267.158V84H266.066Z" fill="#888888"/>
<path d="M215.088 129V101.544H205.188V98.2H228.684V101.544H218.784V129H215.088ZM239.08 129.616C236.91 129.616 234.988 129.161 233.316 128.252C231.674 127.343 230.383 126.067 229.444 124.424C228.535 122.752 228.08 120.787 228.08 118.528V117.956C228.08 115.727 228.535 113.776 229.444 112.104C230.383 110.432 231.674 109.141 233.316 108.232C234.988 107.323 236.91 106.868 239.08 106.868C241.251 106.868 243.158 107.323 244.8 108.232C246.472 109.141 247.763 110.432 248.672 112.104C249.611 113.776 250.08 115.727 250.08 117.956V118.528C250.08 120.787 249.611 122.752 248.672 124.424C247.763 126.067 246.472 127.343 244.8 128.252C243.158 129.161 241.251 129.616 239.08 129.616ZM239.08 126.492C241.368 126.492 243.187 125.773 244.536 124.336C245.915 122.869 246.604 120.904 246.604 118.44V118.044C246.604 115.58 245.915 113.629 244.536 112.192C243.187 110.725 241.368 109.992 239.08 109.992C236.822 109.992 235.003 110.725 233.624 112.192C232.246 113.629 231.556 115.58 231.556 118.044V118.44C231.556 120.904 232.246 122.869 233.624 124.336C235.003 125.773 236.822 126.492 239.08 126.492ZM256.336 129V107.484H259.724V110.168H260.34C260.75 109.405 261.425 108.701 262.364 108.056C263.302 107.411 264.622 107.088 266.324 107.088C267.996 107.088 269.345 107.455 270.372 108.188C271.428 108.921 272.19 109.816 272.66 110.872H273.276C273.774 109.816 274.522 108.921 275.52 108.188C276.546 107.455 277.969 107.088 279.788 107.088C281.225 107.088 282.486 107.381 283.572 107.968C284.657 108.555 285.508 109.405 286.124 110.52C286.769 111.605 287.092 112.911 287.092 114.436V129H283.616V114.744C283.616 113.307 283.19 112.177 282.34 111.356C281.518 110.505 280.36 110.08 278.864 110.08C277.28 110.08 275.974 110.593 274.948 111.62C273.95 112.647 273.452 114.128 273.452 116.064V129H269.976V114.744C269.976 113.307 269.55 112.177 268.7 111.356C267.878 110.505 266.72 110.08 265.224 110.08C263.64 110.08 262.334 110.593 261.308 111.62C260.31 112.647 259.812 114.128 259.812 116.064V129H256.336ZM304.135 129.616C301.964 129.616 300.043 129.161 298.371 128.252C296.728 127.343 295.438 126.067 294.499 124.424C293.59 122.752 293.135 120.787 293.135 118.528V117.956C293.135 115.727 293.59 113.776 294.499 112.104C295.438 110.432 296.728 109.141 298.371 108.232C300.043 107.323 301.964 106.868 304.135 106.868C306.306 106.868 308.212 107.323 309.855 108.232C311.527 109.141 312.818 110.432 313.727 112.104C314.666 113.776 315.135 115.727 315.135 117.956V118.528C315.135 120.787 314.666 122.752 313.727 124.424C312.818 126.067 311.527 127.343 309.855 128.252C308.212 129.161 306.306 129.616 304.135 129.616ZM304.135 126.492C306.423 126.492 308.242 125.773 309.591 124.336C310.97 122.869 311.659 120.904 311.659 118.44V118.044C311.659 115.58 310.97 113.629 309.591 112.192C308.242 110.725 306.423 109.992 304.135 109.992C301.876 109.992 300.058 110.725 298.679 112.192C297.3 113.629 296.611 115.58 296.611 118.044V118.44C296.611 120.904 297.3 122.869 298.679 124.336C300.058 125.773 301.876 126.492 304.135 126.492ZM321.39 129V107.484H324.778V110.124H325.394C325.776 109.185 326.362 108.496 327.154 108.056C327.946 107.616 328.988 107.396 330.278 107.396H332.83V110.564H330.058C328.504 110.564 327.242 111.004 326.274 111.884C325.336 112.735 324.866 114.069 324.866 115.888V129H321.39ZM337.976 129V107.484H341.364V110.124H341.98C342.362 109.185 342.948 108.496 343.74 108.056C344.532 107.616 345.574 107.396 346.864 107.396H349.416V110.564H346.644C345.09 110.564 343.828 111.004 342.86 111.884C341.922 112.735 341.452 114.069 341.452 115.888V129H337.976ZM363.733 129.616C361.562 129.616 359.641 129.161 357.969 128.252C356.326 127.343 355.035 126.067 354.097 124.424C353.187 122.752 352.733 120.787 352.733 118.528V117.956C352.733 115.727 353.187 113.776 354.097 112.104C355.035 110.432 356.326 109.141 357.969 108.232C359.641 107.323 361.562 106.868 363.733 106.868C365.903 106.868 367.81 107.323 369.453 108.232C371.125 109.141 372.415 110.432 373.325 112.104C374.263 113.776 374.733 115.727 374.733 117.956V118.528C374.733 120.787 374.263 122.752 373.325 124.424C372.415 126.067 371.125 127.343 369.453 128.252C367.81 129.161 365.903 129.616 363.733 129.616ZM363.733 126.492C366.021 126.492 367.839 125.773 369.189 124.336C370.567 122.869 371.257 120.904 371.257 118.44V118.044C371.257 115.58 370.567 113.629 369.189 112.192C367.839 110.725 366.021 109.992 363.733 109.992C361.474 109.992 359.655 110.725 358.277 112.192C356.898 113.629 356.209 115.58 356.209 118.044V118.44C356.209 120.904 356.898 122.869 358.277 124.336C359.655 125.773 361.474 126.492 363.733 126.492ZM383.55 129L379.238 107.484H382.758L386.322 126.668H386.938L391.646 107.484H397.41L402.118 126.668H402.734L406.298 107.484H409.818L405.506 129H399.566L394.814 109.816H394.242L389.49 129H383.55ZM415.441 108.408V106.208H416.717C417.773 106.208 418.301 105.68 418.301 104.624V103.216H417.685C416.834 103.216 416.115 102.952 415.529 102.424C414.971 101.896 414.693 101.236 414.693 100.444C414.693 99.5933 414.971 98.904 415.529 98.376C416.115 97.848 416.834 97.584 417.685 97.584C418.535 97.584 419.239 97.8627 419.797 98.42C420.354 98.9773 420.633 99.6813 420.633 100.532V104.624C420.633 107.147 419.371 108.408 416.849 108.408H415.441ZM435.332 129.616C432.662 129.616 430.404 129 428.556 127.768C426.737 126.536 425.637 124.585 425.256 121.916L428.556 121.168C428.79 122.576 429.23 123.691 429.876 124.512C430.521 125.304 431.313 125.876 432.252 126.228C433.22 126.551 434.246 126.712 435.332 126.712C436.945 126.712 438.221 126.389 439.16 125.744C440.098 125.099 440.568 124.233 440.568 123.148C440.568 122.033 440.113 121.256 439.204 120.816C438.324 120.347 437.106 119.965 435.552 119.672L433.748 119.364C432.369 119.129 431.108 118.763 429.964 118.264C428.82 117.765 427.91 117.091 427.236 116.24C426.561 115.389 426.224 114.319 426.224 113.028C426.224 111.092 426.972 109.581 428.468 108.496C429.964 107.411 431.944 106.868 434.408 106.868C436.842 106.868 438.808 107.425 440.304 108.54C441.829 109.625 442.812 111.165 443.252 113.16L439.996 113.996C439.732 112.441 439.101 111.356 438.104 110.74C437.106 110.095 435.874 109.772 434.408 109.772C432.941 109.772 431.782 110.051 430.932 110.608C430.081 111.136 429.656 111.928 429.656 112.984C429.656 114.011 430.052 114.773 430.844 115.272C431.665 115.741 432.75 116.093 434.1 116.328L435.904 116.636C437.429 116.9 438.793 117.267 439.996 117.736C441.228 118.176 442.196 118.821 442.9 119.672C443.633 120.523 444 121.637 444 123.016C444 125.128 443.208 126.756 441.624 127.9C440.069 129.044 437.972 129.616 435.332 129.616ZM458.057 129L467.561 98.2H474.073L483.577 129H479.749L477.373 121.212H464.261L461.885 129H458.057ZM465.185 117.868H476.405L471.125 100.444H470.509L465.185 117.868ZM488.192 129V98.2H491.888V129H488.192Z" fill="#22113E"/>
</g>
<defs>
<clipPath id="clip0_104_140">
<rect width="800" height="200" fill="white"/>
</clipPath>
</defs>
</svg>
