<svg width="400" height="400" viewBox="0 0 400 400" fill="none" xmlns="http://www.w3.org/2000/svg">
<g clip-path="url(#clip0_104_95)">
<path d="M400 0H0V400H400V0Z" fill="white"/>
<path d="M200 320C266.274 320 320 266.274 320 200C320 133.726 266.274 80 200 80C133.726 80 80 133.726 80 200C80 266.274 133.726 320 200 320Z" fill="#EA7DFF"/>
<path d="M173.631 214L187.455 169.2H196.927L210.751 214H205.183L201.727 202.672H182.655L179.199 214H173.631ZM183.999 197.808H200.319L192.639 172.464H191.743L183.999 197.808ZM217.464 214V169.2H222.84V214H217.464Z" fill="#22113E"/>
</g>
<defs>
<clipPath id="clip0_104_95">
<rect width="400" height="400" fill="white"/>
</clipPath>
</defs>
</svg>
