<svg width="400" height="480" viewBox="0 0 400 480" fill="none" xmlns="http://www.w3.org/2000/svg">
<path d="M200 260.543C253.019 260.543 296 217.472 296 164.342C296 111.212 253.019 68.142 200 68.142C146.981 68.142 104 111.212 104 164.342C104 217.472 146.981 260.543 200 260.543Z" fill="#EA7DFF"/>
<path d="M177.751 177.259L189.415 139.459H197.407L209.071 177.259H204.373L201.457 167.701H185.365L182.449 177.259H177.751ZM186.499 163.597H200.269L193.789 142.213H193.033L186.499 163.597ZM214.735 177.259V139.459H219.271V177.259H214.735Z" fill="#22113E"/>
<path d="M100 296.618H300" stroke="#EA7DFF" stroke-width="1.5"/>
<path d="M159.025 344.933C158.113 344.933 157.297 344.771 156.577 344.447C155.857 344.123 155.287 343.637 154.867 342.989C154.459 342.329 154.255 341.507 154.255 340.523V340.145H155.749V340.523C155.749 341.567 156.055 342.347 156.667 342.863C157.279 343.367 158.065 343.619 159.025 343.619C160.009 343.619 160.759 343.397 161.275 342.953C161.791 342.509 162.049 341.951 162.049 341.279C162.049 340.811 161.929 340.439 161.689 340.163C161.461 339.887 161.137 339.665 160.717 339.497C160.297 339.317 159.805 339.161 159.241 339.029L158.305 338.795C157.573 338.603 156.925 338.369 156.361 338.093C155.797 337.817 155.353 337.457 155.029 337.013C154.717 336.557 154.561 335.975 154.561 335.267C154.561 334.559 154.735 333.947 155.083 333.431C155.443 332.915 155.941 332.519 156.577 332.243C157.225 331.967 157.969 331.829 158.809 331.829C159.661 331.829 160.423 331.979 161.095 332.279C161.779 332.567 162.313 332.999 162.697 333.575C163.093 334.139 163.291 334.853 163.291 335.717V336.473H161.797V335.717C161.797 335.105 161.665 334.613 161.401 334.241C161.149 333.869 160.795 333.593 160.339 333.413C159.895 333.233 159.385 333.143 158.809 333.143C157.981 333.143 157.315 333.329 156.811 333.701C156.307 334.061 156.055 334.577 156.055 335.249C156.055 335.693 156.163 336.053 156.379 336.329C156.595 336.605 156.901 336.833 157.297 337.013C157.693 337.181 158.167 337.331 158.719 337.463L159.655 337.697C160.387 337.853 161.041 338.069 161.617 338.345C162.205 338.609 162.673 338.975 163.021 339.443C163.369 339.899 163.543 340.499 163.543 341.243C163.543 341.987 163.357 342.635 162.985 343.187C162.613 343.739 162.085 344.171 161.401 344.483C160.729 344.783 159.937 344.933 159.025 344.933ZM170.424 344.933C168.924 344.933 167.73 344.501 166.842 343.637C165.954 342.761 165.51 341.489 165.51 339.821V336.941C165.51 335.273 165.954 334.007 166.842 333.143C167.73 332.267 168.924 331.829 170.424 331.829C171.912 331.829 173.052 332.243 173.844 333.071C174.648 333.899 175.05 335.033 175.05 336.473V336.563H173.556V336.419C173.556 335.471 173.298 334.697 172.782 334.097C172.278 333.485 171.492 333.179 170.424 333.179C169.356 333.179 168.522 333.509 167.922 334.169C167.322 334.817 167.022 335.729 167.022 336.905V339.857C167.022 341.033 167.322 341.951 167.922 342.611C168.522 343.259 169.356 343.583 170.424 343.583C171.492 343.583 172.278 343.283 172.782 342.683C173.298 342.071 173.556 341.291 173.556 340.343V340.055H175.05V340.289C175.05 341.729 174.648 342.863 173.844 343.691C173.052 344.519 171.912 344.933 170.424 344.933ZM177.419 344.681V332.081H178.931V337.679H184.835V332.081H186.347V344.681H184.835V339.047H178.931V344.681H177.419ZM193.803 344.933C192.303 344.933 191.103 344.501 190.203 343.637C189.315 342.761 188.871 341.489 188.871 339.821V336.941C188.871 335.273 189.315 334.007 190.203 333.143C191.103 332.267 192.303 331.829 193.803 331.829C195.315 331.829 196.515 332.267 197.403 333.143C198.303 334.007 198.753 335.273 198.753 336.941V339.821C198.753 341.489 198.303 342.761 197.403 343.637C196.515 344.501 195.315 344.933 193.803 344.933ZM193.803 343.583C194.895 343.583 195.741 343.259 196.341 342.611C196.941 341.951 197.241 341.039 197.241 339.875V336.887C197.241 335.723 196.941 334.817 196.341 334.169C195.741 333.509 194.895 333.179 193.803 333.179C192.723 333.179 191.883 333.509 191.283 334.169C190.683 334.817 190.383 335.723 190.383 336.887V339.875C190.383 341.039 190.683 341.951 191.283 342.611C191.883 343.259 192.723 343.583 193.803 343.583ZM205.844 344.933C204.344 344.933 203.144 344.501 202.244 343.637C201.356 342.761 200.912 341.489 200.912 339.821V336.941C200.912 335.273 201.356 334.007 202.244 333.143C203.144 332.267 204.344 331.829 205.844 331.829C207.356 331.829 208.556 332.267 209.444 333.143C210.344 334.007 210.794 335.273 210.794 336.941V339.821C210.794 341.489 210.344 342.761 209.444 343.637C208.556 344.501 207.356 344.933 205.844 344.933ZM205.844 343.583C206.936 343.583 207.782 343.259 208.382 342.611C208.982 341.951 209.282 341.039 209.282 339.875V336.887C209.282 335.723 208.982 334.817 208.382 334.169C207.782 333.509 206.936 333.179 205.844 333.179C204.764 333.179 203.924 333.509 203.324 334.169C202.724 334.817 202.424 335.723 202.424 336.887V339.875C202.424 341.039 202.724 341.951 203.324 342.611C203.924 343.259 204.764 343.583 205.844 343.583ZM213.313 344.681V332.081H214.825V343.313H221.197V344.681H213.313ZM231.86 344.933C230.36 344.933 229.16 344.501 228.26 343.637C227.372 342.761 226.928 341.489 226.928 339.821V336.941C226.928 335.273 227.372 334.007 228.26 333.143C229.16 332.267 230.36 331.829 231.86 331.829C233.372 331.829 234.572 332.267 235.46 333.143C236.36 334.007 236.81 335.273 236.81 336.941V339.821C236.81 341.489 236.36 342.761 235.46 343.637C234.572 344.501 233.372 344.933 231.86 344.933ZM231.86 343.583C232.952 343.583 233.798 343.259 234.398 342.611C234.998 341.951 235.298 341.039 235.298 339.875V336.887C235.298 335.723 234.998 334.817 234.398 334.169C233.798 333.509 232.952 333.179 231.86 333.179C230.78 333.179 229.94 333.509 229.34 334.169C228.74 334.817 228.44 335.723 228.44 336.887V339.875C228.44 341.039 228.74 341.951 229.34 342.611C229.94 343.259 230.78 343.583 231.86 343.583ZM239.329 344.681V332.081H246.943V333.449H240.841V337.679H246.457V339.047H240.841V344.681H239.329Z" fill="#888888"/>
<path d="M109.984 381.722V359.258H101.884V356.522H121.108V359.258H113.008V381.722H109.984ZM129.614 382.226C127.838 382.226 126.266 381.854 124.898 381.11C123.554 380.366 122.498 379.322 121.73 377.978C120.986 376.61 120.614 375.002 120.614 373.154V372.686C120.614 370.862 120.986 369.266 121.73 367.898C122.498 366.53 123.554 365.474 124.898 364.73C126.266 363.986 127.838 363.614 129.614 363.614C131.39 363.614 132.95 363.986 134.294 364.73C135.662 365.474 136.718 366.53 137.462 367.898C138.23 369.266 138.614 370.862 138.614 372.686V373.154C138.614 375.002 138.23 376.61 137.462 377.978C136.718 379.322 135.662 380.366 134.294 381.11C132.95 381.854 131.39 382.226 129.614 382.226ZM129.614 379.67C131.486 379.67 132.974 379.082 134.078 377.906C135.206 376.706 135.77 375.098 135.77 373.082V372.758C135.77 370.742 135.206 369.146 134.078 367.97C132.974 366.77 131.486 366.17 129.614 366.17C127.766 366.17 126.278 366.77 125.15 367.97C124.022 369.146 123.458 370.742 123.458 372.758V373.082C123.458 375.098 124.022 376.706 125.15 377.906C126.278 379.082 127.766 379.67 129.614 379.67ZM143.732 381.722V364.118H146.504V366.314H147.008C147.344 365.69 147.896 365.114 148.664 364.586C149.432 364.058 150.512 363.794 151.904 363.794C153.272 363.794 154.376 364.094 155.216 364.694C156.08 365.294 156.704 366.026 157.088 366.89H157.592C158 366.026 158.612 365.294 159.428 364.694C160.268 364.094 161.432 363.794 162.92 363.794C164.096 363.794 165.128 364.034 166.016 364.514C166.904 364.994 167.6 365.69 168.104 366.602C168.632 367.49 168.896 368.558 168.896 369.806V381.722H166.052V370.058C166.052 368.882 165.704 367.958 165.008 367.286C164.336 366.59 163.388 366.242 162.164 366.242C160.868 366.242 159.8 366.662 158.96 367.502C158.144 368.342 157.736 369.554 157.736 371.138V381.722H154.892V370.058C154.892 368.882 154.544 367.958 153.848 367.286C153.176 366.59 152.228 366.242 151.004 366.242C149.708 366.242 148.64 366.662 147.8 367.502C146.984 368.342 146.576 369.554 146.576 371.138V381.722H143.732ZM182.841 382.226C181.065 382.226 179.493 381.854 178.125 381.11C176.781 380.366 175.725 379.322 174.957 377.978C174.213 376.61 173.841 375.002 173.841 373.154V372.686C173.841 370.862 174.213 369.266 174.957 367.898C175.725 366.53 176.781 365.474 178.125 364.73C179.493 363.986 181.065 363.614 182.841 363.614C184.617 363.614 186.177 363.986 187.521 364.73C188.889 365.474 189.945 366.53 190.689 367.898C191.457 369.266 191.841 370.862 191.841 372.686V373.154C191.841 375.002 191.457 376.61 190.689 377.978C189.945 379.322 188.889 380.366 187.521 381.11C186.177 381.854 184.617 382.226 182.841 382.226ZM182.841 379.67C184.713 379.67 186.201 379.082 187.305 377.906C188.433 376.706 188.997 375.098 188.997 373.082V372.758C188.997 370.742 188.433 369.146 187.305 367.97C186.201 366.77 184.713 366.17 182.841 366.17C180.993 366.17 179.505 366.77 178.377 367.97C177.249 369.146 176.685 370.742 176.685 372.758V373.082C176.685 375.098 177.249 376.706 178.377 377.906C179.505 379.082 180.993 379.67 182.841 379.67ZM196.959 381.722V364.118H199.731V366.278H200.235C200.547 365.51 201.027 364.946 201.675 364.586C202.323 364.226 203.175 364.046 204.231 364.046H206.319V366.638H204.051C202.779 366.638 201.747 366.998 200.955 367.718C200.187 368.414 199.803 369.506 199.803 370.994V381.722H196.959ZM210.529 381.722V364.118H213.301V366.278H213.805C214.117 365.51 214.597 364.946 215.245 364.586C215.893 364.226 216.745 364.046 217.801 364.046H219.889V366.638H217.621C216.349 366.638 215.317 366.998 214.525 367.718C213.757 368.414 213.373 369.506 213.373 370.994V381.722H210.529ZM231.603 382.226C229.827 382.226 228.255 381.854 226.887 381.11C225.543 380.366 224.487 379.322 223.719 377.978C222.975 376.61 222.603 375.002 222.603 373.154V372.686C222.603 370.862 222.975 369.266 223.719 367.898C224.487 366.53 225.543 365.474 226.887 364.73C228.255 363.986 229.827 363.614 231.603 363.614C233.379 363.614 234.939 363.986 236.283 364.73C237.651 365.474 238.707 366.53 239.451 367.898C240.219 369.266 240.603 370.862 240.603 372.686V373.154C240.603 375.002 240.219 376.61 239.451 377.978C238.707 379.322 237.651 380.366 236.283 381.11C234.939 381.854 233.379 382.226 231.603 382.226ZM231.603 379.67C233.475 379.67 234.963 379.082 236.067 377.906C237.195 376.706 237.759 375.098 237.759 373.082V372.758C237.759 370.742 237.195 369.146 236.067 367.97C234.963 366.77 233.475 366.17 231.603 366.17C229.755 366.17 228.267 366.77 227.139 367.97C226.011 369.146 225.447 370.742 225.447 372.758V373.082C225.447 375.098 226.011 376.706 227.139 377.906C228.267 379.082 229.755 379.67 231.603 379.67ZM247.817 381.722L244.289 364.118H247.169L250.085 379.814H250.589L254.441 364.118H259.157L263.009 379.814H263.513L266.429 364.118H269.309L265.781 381.722H260.921L257.033 366.026H256.565L252.677 381.722H247.817ZM273.909 364.874V363.074H274.953C275.817 363.074 276.249 362.642 276.249 361.778V360.626H275.745C275.049 360.626 274.461 360.41 273.981 359.978C273.525 359.546 273.297 359.006 273.297 358.358C273.297 357.662 273.525 357.098 273.981 356.666C274.461 356.234 275.049 356.018 275.745 356.018C276.441 356.018 277.017 356.246 277.473 356.702C277.929 357.158 278.157 357.734 278.157 358.43V361.778C278.157 363.842 277.125 364.874 275.061 364.874H273.909ZM290.184 382.226C288 382.226 286.152 381.722 284.64 380.714C283.152 379.706 282.252 378.11 281.94 375.926L284.64 375.314C284.832 376.466 285.192 377.378 285.72 378.05C286.248 378.698 286.896 379.166 287.664 379.454C288.456 379.718 289.296 379.85 290.184 379.85C291.504 379.85 292.548 379.586 293.316 379.058C294.084 378.53 294.468 377.822 294.468 376.934C294.468 376.022 294.096 375.386 293.352 375.026C292.632 374.642 291.636 374.33 290.364 374.09L288.888 373.838C287.76 373.646 286.728 373.346 285.792 372.938C284.856 372.53 284.112 371.978 283.56 371.282C283.008 370.586 282.732 369.71 282.732 368.654C282.732 367.07 283.344 365.834 284.568 364.946C285.792 364.058 287.412 363.614 289.428 363.614C291.42 363.614 293.028 364.07 294.252 364.982C295.5 365.87 296.304 367.13 296.664 368.762L294 369.446C293.784 368.174 293.268 367.286 292.452 366.782C291.636 366.254 290.628 365.99 289.428 365.99C288.228 365.99 287.28 366.218 286.584 366.674C285.888 367.106 285.54 367.754 285.54 368.618C285.54 369.458 285.864 370.082 286.512 370.49C287.184 370.874 288.072 371.162 289.176 371.354L290.652 371.606C291.9 371.822 293.016 372.122 294 372.506C295.008 372.866 295.8 373.394 296.376 374.09C296.976 374.786 297.276 375.698 297.276 376.826C297.276 378.554 296.628 379.886 295.332 380.822C294.06 381.758 292.344 382.226 290.184 382.226Z" fill="#22113E"/>
<path d="M185.168 423.81L192.944 398.61H198.272L206.048 423.81H202.916L200.972 417.438H190.244L188.3 423.81H185.168ZM191 414.702H200.18L195.86 400.446H195.356L191 414.702ZM209.823 423.81V398.61H212.847V423.81H209.823Z" fill="#22113E"/>
</svg>
