<svg width="400" height="560" viewBox="0 0 400 560" fill="none" xmlns="http://www.w3.org/2000/svg">
<g clip-path="url(#clip0_104_123)">
<path d="M400 0H0V560H400V0Z" fill="#22113E"/>
<path d="M200 260C253.019 260 296 217.019 296 164C296 110.981 253.019 68 200 68C146.981 68 104 110.981 104 164C104 217.019 146.981 260 200 260Z" fill="#EA7DFF"/>
<path d="M177.751 177L189.415 139.2H197.407L209.071 177H204.373L201.457 167.442H185.365L182.449 177H177.751ZM186.499 163.338H200.269L193.789 141.954H193.033L186.499 163.338ZM214.735 177V139.2H219.271V177H214.735Z" fill="#22113E"/>
<path d="M100 296H300" stroke="#EA7DFF" stroke-width="1.5"/>
<path d="M167.741 340.196C167.032 340.196 166.397 340.07 165.837 339.818C165.277 339.566 164.834 339.188 164.507 338.684C164.19 338.171 164.031 337.531 164.031 336.766V336.472H165.193V336.766C165.193 337.578 165.431 338.185 165.907 338.586C166.383 338.978 166.995 339.174 167.741 339.174C168.507 339.174 169.09 339.001 169.491 338.656C169.893 338.311 170.093 337.877 170.093 337.354C170.093 336.99 170 336.701 169.813 336.486C169.636 336.271 169.384 336.099 169.057 335.968C168.731 335.828 168.348 335.707 167.909 335.604L167.181 335.422C166.612 335.273 166.108 335.091 165.669 334.876C165.231 334.661 164.885 334.381 164.633 334.036C164.391 333.681 164.269 333.229 164.269 332.678C164.269 332.127 164.405 331.651 164.675 331.25C164.955 330.849 165.343 330.541 165.837 330.326C166.341 330.111 166.92 330.004 167.573 330.004C168.236 330.004 168.829 330.121 169.351 330.354C169.883 330.578 170.299 330.914 170.597 331.362C170.905 331.801 171.059 332.356 171.059 333.028V333.616H169.897V333.028C169.897 332.552 169.795 332.169 169.589 331.88C169.393 331.591 169.118 331.376 168.763 331.236C168.418 331.096 168.021 331.026 167.573 331.026C166.929 331.026 166.411 331.171 166.019 331.46C165.627 331.74 165.431 332.141 165.431 332.664C165.431 333.009 165.515 333.289 165.683 333.504C165.851 333.719 166.089 333.896 166.397 334.036C166.705 334.167 167.074 334.283 167.503 334.386L168.231 334.568C168.801 334.689 169.309 334.857 169.757 335.072C170.215 335.277 170.579 335.562 170.849 335.926C171.12 336.281 171.255 336.747 171.255 337.326C171.255 337.905 171.111 338.409 170.821 338.838C170.532 339.267 170.121 339.603 169.589 339.846C169.067 340.079 168.451 340.196 167.741 340.196ZM176.607 340.196C175.441 340.196 174.512 339.86 173.821 339.188C173.131 338.507 172.785 337.517 172.785 336.22V333.98C172.785 332.683 173.131 331.698 173.821 331.026C174.512 330.345 175.441 330.004 176.607 330.004C177.765 330.004 178.651 330.326 179.267 330.97C179.893 331.614 180.205 332.496 180.205 333.616V333.686H179.043V333.574C179.043 332.837 178.843 332.235 178.441 331.768C178.049 331.292 177.438 331.054 176.607 331.054C175.777 331.054 175.128 331.311 174.661 331.824C174.195 332.328 173.961 333.037 173.961 333.952V336.248C173.961 337.163 174.195 337.877 174.661 338.39C175.128 338.894 175.777 339.146 176.607 339.146C177.438 339.146 178.049 338.913 178.441 338.446C178.843 337.97 179.043 337.363 179.043 336.626V336.402H180.205V336.584C180.205 337.704 179.893 338.586 179.267 339.23C178.651 339.874 177.765 340.196 176.607 340.196ZM182.048 340V330.2H183.224V334.554H187.816V330.2H188.992V340H187.816V335.618H183.224V340H182.048ZM194.791 340.196C193.625 340.196 192.691 339.86 191.991 339.188C191.301 338.507 190.955 337.517 190.955 336.22V333.98C190.955 332.683 191.301 331.698 191.991 331.026C192.691 330.345 193.625 330.004 194.791 330.004C195.967 330.004 196.901 330.345 197.591 331.026C198.291 331.698 198.641 332.683 198.641 333.98V336.22C198.641 337.517 198.291 338.507 197.591 339.188C196.901 339.86 195.967 340.196 194.791 340.196ZM194.791 339.146C195.641 339.146 196.299 338.894 196.765 338.39C197.232 337.877 197.465 337.167 197.465 336.262V333.938C197.465 333.033 197.232 332.328 196.765 331.824C196.299 331.311 195.641 331.054 194.791 331.054C193.951 331.054 193.298 331.311 192.831 331.824C192.365 332.328 192.131 333.033 192.131 333.938V336.262C192.131 337.167 192.365 337.877 192.831 338.39C193.298 338.894 193.951 339.146 194.791 339.146ZM204.156 340.196C202.99 340.196 202.056 339.86 201.356 339.188C200.666 338.507 200.32 337.517 200.32 336.22V333.98C200.32 332.683 200.666 331.698 201.356 331.026C202.056 330.345 202.99 330.004 204.156 330.004C205.332 330.004 206.266 330.345 206.956 331.026C207.656 331.698 208.006 332.683 208.006 333.98V336.22C208.006 337.517 207.656 338.507 206.956 339.188C206.266 339.86 205.332 340.196 204.156 340.196ZM204.156 339.146C205.006 339.146 205.664 338.894 206.13 338.39C206.597 337.877 206.83 337.167 206.83 336.262V333.938C206.83 333.033 206.597 332.328 206.13 331.824C205.664 331.311 205.006 331.054 204.156 331.054C203.316 331.054 202.663 331.311 202.196 331.824C201.73 332.328 201.496 333.033 201.496 333.938V336.262C201.496 337.167 201.73 337.877 202.196 338.39C202.663 338.894 203.316 339.146 204.156 339.146ZM209.966 340V330.2H211.142V338.936H216.098V340H209.966ZM224.391 340.196C223.224 340.196 222.291 339.86 221.591 339.188C220.9 338.507 220.555 337.517 220.555 336.22V333.98C220.555 332.683 220.9 331.698 221.591 331.026C222.291 330.345 223.224 330.004 224.391 330.004C225.567 330.004 226.5 330.345 227.191 331.026C227.891 331.698 228.241 332.683 228.241 333.98V336.22C228.241 337.517 227.891 338.507 227.191 339.188C226.5 339.86 225.567 340.196 224.391 340.196ZM224.391 339.146C225.24 339.146 225.898 338.894 226.365 338.39C226.832 337.877 227.065 337.167 227.065 336.262V333.938C227.065 333.033 226.832 332.328 226.365 331.824C225.898 331.311 225.24 331.054 224.391 331.054C223.551 331.054 222.898 331.311 222.431 331.824C221.964 332.328 221.731 333.033 221.731 333.938V336.262C221.731 337.167 221.964 337.877 222.431 338.39C222.898 338.894 223.551 339.146 224.391 339.146ZM230.2 340V330.2H236.122V331.264H231.376V334.554H235.744V335.618H231.376V340H230.2Z" fill="#CAD8D8"/>
<path d="M109.984 381V358.536H101.884V355.8H121.108V358.536H113.008V381H109.984ZM129.614 381.504C127.838 381.504 126.266 381.132 124.898 380.388C123.554 379.644 122.498 378.6 121.73 377.256C120.986 375.888 120.614 374.28 120.614 372.432V371.964C120.614 370.14 120.986 368.544 121.73 367.176C122.498 365.808 123.554 364.752 124.898 364.008C126.266 363.264 127.838 362.892 129.614 362.892C131.39 362.892 132.95 363.264 134.294 364.008C135.662 364.752 136.718 365.808 137.462 367.176C138.23 368.544 138.614 370.14 138.614 371.964V372.432C138.614 374.28 138.23 375.888 137.462 377.256C136.718 378.6 135.662 379.644 134.294 380.388C132.95 381.132 131.39 381.504 129.614 381.504ZM129.614 378.948C131.486 378.948 132.974 378.36 134.078 377.184C135.206 375.984 135.77 374.376 135.77 372.36V372.036C135.77 370.02 135.206 368.424 134.078 367.248C132.974 366.048 131.486 365.448 129.614 365.448C127.766 365.448 126.278 366.048 125.15 367.248C124.022 368.424 123.458 370.02 123.458 372.036V372.36C123.458 374.376 124.022 375.984 125.15 377.184C126.278 378.36 127.766 378.948 129.614 378.948ZM143.732 381V363.396H146.504V365.592H147.008C147.344 364.968 147.896 364.392 148.664 363.864C149.432 363.336 150.512 363.072 151.904 363.072C153.272 363.072 154.376 363.372 155.216 363.972C156.08 364.572 156.704 365.304 157.088 366.168H157.592C158 365.304 158.612 364.572 159.428 363.972C160.268 363.372 161.432 363.072 162.92 363.072C164.096 363.072 165.128 363.312 166.016 363.792C166.904 364.272 167.6 364.968 168.104 365.88C168.632 366.768 168.896 367.836 168.896 369.084V381H166.052V369.336C166.052 368.16 165.704 367.236 165.008 366.564C164.336 365.868 163.388 365.52 162.164 365.52C160.868 365.52 159.8 365.94 158.96 366.78C158.144 367.62 157.736 368.832 157.736 370.416V381H154.892V369.336C154.892 368.16 154.544 367.236 153.848 366.564C153.176 365.868 152.228 365.52 151.004 365.52C149.708 365.52 148.64 365.94 147.8 366.78C146.984 367.62 146.576 368.832 146.576 370.416V381H143.732ZM182.841 381.504C181.065 381.504 179.493 381.132 178.125 380.388C176.781 379.644 175.725 378.6 174.957 377.256C174.213 375.888 173.841 374.28 173.841 372.432V371.964C173.841 370.14 174.213 368.544 174.957 367.176C175.725 365.808 176.781 364.752 178.125 364.008C179.493 363.264 181.065 362.892 182.841 362.892C184.617 362.892 186.177 363.264 187.521 364.008C188.889 364.752 189.945 365.808 190.689 367.176C191.457 368.544 191.841 370.14 191.841 371.964V372.432C191.841 374.28 191.457 375.888 190.689 377.256C189.945 378.6 188.889 379.644 187.521 380.388C186.177 381.132 184.617 381.504 182.841 381.504ZM182.841 378.948C184.713 378.948 186.201 378.36 187.305 377.184C188.433 375.984 188.997 374.376 188.997 372.36V372.036C188.997 370.02 188.433 368.424 187.305 367.248C186.201 366.048 184.713 365.448 182.841 365.448C180.993 365.448 179.505 366.048 178.377 367.248C177.249 368.424 176.685 370.02 176.685 372.036V372.36C176.685 374.376 177.249 375.984 178.377 377.184C179.505 378.36 180.993 378.948 182.841 378.948ZM196.959 381V363.396H199.731V365.556H200.235C200.547 364.788 201.027 364.224 201.675 363.864C202.323 363.504 203.175 363.324 204.231 363.324H206.319V365.916H204.051C202.779 365.916 201.747 366.276 200.955 366.996C200.187 367.692 199.803 368.784 199.803 370.272V381H196.959ZM210.529 381V363.396H213.301V365.556H213.805C214.117 364.788 214.597 364.224 215.245 363.864C215.893 363.504 216.745 363.324 217.801 363.324H219.889V365.916H217.621C216.349 365.916 215.317 366.276 214.525 366.996C213.757 367.692 213.373 368.784 213.373 370.272V381H210.529ZM231.603 381.504C229.827 381.504 228.255 381.132 226.887 380.388C225.543 379.644 224.487 378.6 223.719 377.256C222.975 375.888 222.603 374.28 222.603 372.432V371.964C222.603 370.14 222.975 368.544 223.719 367.176C224.487 365.808 225.543 364.752 226.887 364.008C228.255 363.264 229.827 362.892 231.603 362.892C233.379 362.892 234.939 363.264 236.283 364.008C237.651 364.752 238.707 365.808 239.451 367.176C240.219 368.544 240.603 370.14 240.603 371.964V372.432C240.603 374.28 240.219 375.888 239.451 377.256C238.707 378.6 237.651 379.644 236.283 380.388C234.939 381.132 233.379 381.504 231.603 381.504ZM231.603 378.948C233.475 378.948 234.963 378.36 236.067 377.184C237.195 375.984 237.759 374.376 237.759 372.36V372.036C237.759 370.02 237.195 368.424 236.067 367.248C234.963 366.048 233.475 365.448 231.603 365.448C229.755 365.448 228.267 366.048 227.139 367.248C226.011 368.424 225.447 370.02 225.447 372.036V372.36C225.447 374.376 226.011 375.984 227.139 377.184C228.267 378.36 229.755 378.948 231.603 378.948ZM247.817 381L244.289 363.396H247.169L250.085 379.092H250.589L254.441 363.396H259.157L263.009 379.092H263.513L266.429 363.396H269.309L265.781 381H260.921L257.033 365.304H256.565L252.677 381H247.817ZM273.909 364.152V362.352H274.953C275.817 362.352 276.249 361.92 276.249 361.056V359.904H275.745C275.049 359.904 274.461 359.688 273.981 359.256C273.525 358.824 273.297 358.284 273.297 357.636C273.297 356.94 273.525 356.376 273.981 355.944C274.461 355.512 275.049 355.296 275.745 355.296C276.441 355.296 277.017 355.524 277.473 355.98C277.929 356.436 278.157 357.012 278.157 357.708V361.056C278.157 363.12 277.125 364.152 275.061 364.152H273.909ZM290.184 381.504C288 381.504 286.152 381 284.64 379.992C283.152 378.984 282.252 377.388 281.94 375.204L284.64 374.592C284.832 375.744 285.192 376.656 285.72 377.328C286.248 377.976 286.896 378.444 287.664 378.732C288.456 378.996 289.296 379.128 290.184 379.128C291.504 379.128 292.548 378.864 293.316 378.336C294.084 377.808 294.468 377.1 294.468 376.212C294.468 375.3 294.096 374.664 293.352 374.304C292.632 373.92 291.636 373.608 290.364 373.368L288.888 373.116C287.76 372.924 286.728 372.624 285.792 372.216C284.856 371.808 284.112 371.256 283.56 370.56C283.008 369.864 282.732 368.988 282.732 367.932C282.732 366.348 283.344 365.112 284.568 364.224C285.792 363.336 287.412 362.892 289.428 362.892C291.42 362.892 293.028 363.348 294.252 364.26C295.5 365.148 296.304 366.408 296.664 368.04L294 368.724C293.784 367.452 293.268 366.564 292.452 366.06C291.636 365.532 290.628 365.268 289.428 365.268C288.228 365.268 287.28 365.496 286.584 365.952C285.888 366.384 285.54 367.032 285.54 367.896C285.54 368.736 285.864 369.36 286.512 369.768C287.184 370.152 288.072 370.44 289.176 370.632L290.652 370.884C291.9 371.1 293.016 371.4 294 371.784C295.008 372.144 295.8 372.672 296.376 373.368C296.976 374.064 297.276 374.976 297.276 376.104C297.276 377.832 296.628 379.164 295.332 380.1C294.06 381.036 292.344 381.504 290.184 381.504Z" fill="white"/>
<path d="M185.168 423L192.944 397.8H198.272L206.048 423H202.916L200.972 416.628H190.244L188.3 423H185.168ZM191 413.892H200.18L195.86 399.636H195.356L191 413.892ZM209.823 423V397.8H212.847V423H209.823Z" fill="white"/>
</g>
<defs>
<clipPath id="clip0_104_123">
<rect width="400" height="560" fill="white"/>
</clipPath>
</defs>
</svg>
