<svg width="400" height="480" viewBox="0 0 400 480" fill="none" xmlns="http://www.w3.org/2000/svg">
<path d="M200 260C253.019 260 296 217.019 296 164C296 110.981 253.019 68 200 68C146.981 68 104 110.981 104 164C104 217.019 146.981 260 200 260Z" fill="#EA7DFF"/>
<path d="M177.751 177L189.415 139.2H197.407L209.071 177H204.373L201.457 167.442H185.365L182.449 177H177.751ZM186.499 163.338H200.269L193.789 141.954H193.033L186.499 163.338ZM214.735 177V139.2H219.271V177H214.735Z" fill="#22113E"/>
<path d="M100 296H300" stroke="#EA7DFF" stroke-width="1.5"/>
<path d="M159.025 344.252C158.113 344.252 157.297 344.09 156.577 343.766C155.857 343.442 155.287 342.956 154.867 342.308C154.459 341.648 154.255 340.826 154.255 339.842V339.464H155.749V339.842C155.749 340.886 156.055 341.666 156.667 342.182C157.279 342.686 158.065 342.938 159.025 342.938C160.009 342.938 160.759 342.716 161.275 342.272C161.791 341.828 162.049 341.27 162.049 340.598C162.049 340.13 161.929 339.758 161.689 339.482C161.461 339.206 161.137 338.984 160.717 338.816C160.297 338.636 159.805 338.48 159.241 338.348L158.305 338.114C157.573 337.922 156.925 337.688 156.361 337.412C155.797 337.136 155.353 336.776 155.029 336.332C154.717 335.876 154.561 335.294 154.561 334.586C154.561 333.878 154.735 333.266 155.083 332.75C155.443 332.234 155.941 331.838 156.577 331.562C157.225 331.286 157.969 331.148 158.809 331.148C159.661 331.148 160.423 331.298 161.095 331.598C161.779 331.886 162.313 332.318 162.697 332.894C163.093 333.458 163.291 334.172 163.291 335.036V335.792H161.797V335.036C161.797 334.424 161.665 333.932 161.401 333.56C161.149 333.188 160.795 332.912 160.339 332.732C159.895 332.552 159.385 332.462 158.809 332.462C157.981 332.462 157.315 332.648 156.811 333.02C156.307 333.38 156.055 333.896 156.055 334.568C156.055 335.012 156.163 335.372 156.379 335.648C156.595 335.924 156.901 336.152 157.297 336.332C157.693 336.5 158.167 336.65 158.719 336.782L159.655 337.016C160.387 337.172 161.041 337.388 161.617 337.664C162.205 337.928 162.673 338.294 163.021 338.762C163.369 339.218 163.543 339.818 163.543 340.562C163.543 341.306 163.357 341.954 162.985 342.506C162.613 343.058 162.085 343.49 161.401 343.802C160.729 344.102 159.937 344.252 159.025 344.252ZM170.424 344.252C168.924 344.252 167.73 343.82 166.842 342.956C165.954 342.08 165.51 340.808 165.51 339.14V336.26C165.51 334.592 165.954 333.326 166.842 332.462C167.73 331.586 168.924 331.148 170.424 331.148C171.912 331.148 173.052 331.562 173.844 332.39C174.648 333.218 175.05 334.352 175.05 335.792V335.882H173.556V335.738C173.556 334.79 173.298 334.016 172.782 333.416C172.278 332.804 171.492 332.498 170.424 332.498C169.356 332.498 168.522 332.828 167.922 333.488C167.322 334.136 167.022 335.048 167.022 336.224V339.176C167.022 340.352 167.322 341.27 167.922 341.93C168.522 342.578 169.356 342.902 170.424 342.902C171.492 342.902 172.278 342.602 172.782 342.002C173.298 341.39 173.556 340.61 173.556 339.662V339.374H175.05V339.608C175.05 341.048 174.648 342.182 173.844 343.01C173.052 343.838 171.912 344.252 170.424 344.252ZM177.419 344V331.4H178.931V336.998H184.835V331.4H186.347V344H184.835V338.366H178.931V344H177.419ZM193.803 344.252C192.303 344.252 191.103 343.82 190.203 342.956C189.315 342.08 188.871 340.808 188.871 339.14V336.26C188.871 334.592 189.315 333.326 190.203 332.462C191.103 331.586 192.303 331.148 193.803 331.148C195.315 331.148 196.515 331.586 197.403 332.462C198.303 333.326 198.753 334.592 198.753 336.26V339.14C198.753 340.808 198.303 342.08 197.403 342.956C196.515 343.82 195.315 344.252 193.803 344.252ZM193.803 342.902C194.895 342.902 195.741 342.578 196.341 341.93C196.941 341.27 197.241 340.358 197.241 339.194V336.206C197.241 335.042 196.941 334.136 196.341 333.488C195.741 332.828 194.895 332.498 193.803 332.498C192.723 332.498 191.883 332.828 191.283 333.488C190.683 334.136 190.383 335.042 190.383 336.206V339.194C190.383 340.358 190.683 341.27 191.283 341.93C191.883 342.578 192.723 342.902 193.803 342.902ZM205.844 344.252C204.344 344.252 203.144 343.82 202.244 342.956C201.356 342.08 200.912 340.808 200.912 339.14V336.26C200.912 334.592 201.356 333.326 202.244 332.462C203.144 331.586 204.344 331.148 205.844 331.148C207.356 331.148 208.556 331.586 209.444 332.462C210.344 333.326 210.794 334.592 210.794 336.26V339.14C210.794 340.808 210.344 342.08 209.444 342.956C208.556 343.82 207.356 344.252 205.844 344.252ZM205.844 342.902C206.936 342.902 207.782 342.578 208.382 341.93C208.982 341.27 209.282 340.358 209.282 339.194V336.206C209.282 335.042 208.982 334.136 208.382 333.488C207.782 332.828 206.936 332.498 205.844 332.498C204.764 332.498 203.924 332.828 203.324 333.488C202.724 334.136 202.424 335.042 202.424 336.206V339.194C202.424 340.358 202.724 341.27 203.324 341.93C203.924 342.578 204.764 342.902 205.844 342.902ZM213.313 344V331.4H214.825V342.632H221.197V344H213.313ZM231.86 344.252C230.36 344.252 229.16 343.82 228.26 342.956C227.372 342.08 226.928 340.808 226.928 339.14V336.26C226.928 334.592 227.372 333.326 228.26 332.462C229.16 331.586 230.36 331.148 231.86 331.148C233.372 331.148 234.572 331.586 235.46 332.462C236.36 333.326 236.81 334.592 236.81 336.26V339.14C236.81 340.808 236.36 342.08 235.46 342.956C234.572 343.82 233.372 344.252 231.86 344.252ZM231.86 342.902C232.952 342.902 233.798 342.578 234.398 341.93C234.998 341.27 235.298 340.358 235.298 339.194V336.206C235.298 335.042 234.998 334.136 234.398 333.488C233.798 332.828 232.952 332.498 231.86 332.498C230.78 332.498 229.94 332.828 229.34 333.488C228.74 334.136 228.44 335.042 228.44 336.206V339.194C228.44 340.358 228.74 341.27 229.34 341.93C229.94 342.578 230.78 342.902 231.86 342.902ZM239.329 344V331.4H246.943V332.768H240.841V336.998H246.457V338.366H240.841V344H239.329Z" fill="#CAD8D8"/>
<path d="M109.984 381V358.536H101.884V355.8H121.108V358.536H113.008V381H109.984ZM129.614 381.504C127.838 381.504 126.266 381.132 124.898 380.388C123.554 379.644 122.498 378.6 121.73 377.256C120.986 375.888 120.614 374.28 120.614 372.432V371.964C120.614 370.14 120.986 368.544 121.73 367.176C122.498 365.808 123.554 364.752 124.898 364.008C126.266 363.264 127.838 362.892 129.614 362.892C131.39 362.892 132.95 363.264 134.294 364.008C135.662 364.752 136.718 365.808 137.462 367.176C138.23 368.544 138.614 370.14 138.614 371.964V372.432C138.614 374.28 138.23 375.888 137.462 377.256C136.718 378.6 135.662 379.644 134.294 380.388C132.95 381.132 131.39 381.504 129.614 381.504ZM129.614 378.948C131.486 378.948 132.974 378.36 134.078 377.184C135.206 375.984 135.77 374.376 135.77 372.36V372.036C135.77 370.02 135.206 368.424 134.078 367.248C132.974 366.048 131.486 365.448 129.614 365.448C127.766 365.448 126.278 366.048 125.15 367.248C124.022 368.424 123.458 370.02 123.458 372.036V372.36C123.458 374.376 124.022 375.984 125.15 377.184C126.278 378.36 127.766 378.948 129.614 378.948ZM143.732 381V363.396H146.504V365.592H147.008C147.344 364.968 147.896 364.392 148.664 363.864C149.432 363.336 150.512 363.072 151.904 363.072C153.272 363.072 154.376 363.372 155.216 363.972C156.08 364.572 156.704 365.304 157.088 366.168H157.592C158 365.304 158.612 364.572 159.428 363.972C160.268 363.372 161.432 363.072 162.92 363.072C164.096 363.072 165.128 363.312 166.016 363.792C166.904 364.272 167.6 364.968 168.104 365.88C168.632 366.768 168.896 367.836 168.896 369.084V381H166.052V369.336C166.052 368.16 165.704 367.236 165.008 366.564C164.336 365.868 163.388 365.52 162.164 365.52C160.868 365.52 159.8 365.94 158.96 366.78C158.144 367.62 157.736 368.832 157.736 370.416V381H154.892V369.336C154.892 368.16 154.544 367.236 153.848 366.564C153.176 365.868 152.228 365.52 151.004 365.52C149.708 365.52 148.64 365.94 147.8 366.78C146.984 367.62 146.576 368.832 146.576 370.416V381H143.732ZM182.841 381.504C181.065 381.504 179.493 381.132 178.125 380.388C176.781 379.644 175.725 378.6 174.957 377.256C174.213 375.888 173.841 374.28 173.841 372.432V371.964C173.841 370.14 174.213 368.544 174.957 367.176C175.725 365.808 176.781 364.752 178.125 364.008C179.493 363.264 181.065 362.892 182.841 362.892C184.617 362.892 186.177 363.264 187.521 364.008C188.889 364.752 189.945 365.808 190.689 367.176C191.457 368.544 191.841 370.14 191.841 371.964V372.432C191.841 374.28 191.457 375.888 190.689 377.256C189.945 378.6 188.889 379.644 187.521 380.388C186.177 381.132 184.617 381.504 182.841 381.504ZM182.841 378.948C184.713 378.948 186.201 378.36 187.305 377.184C188.433 375.984 188.997 374.376 188.997 372.36V372.036C188.997 370.02 188.433 368.424 187.305 367.248C186.201 366.048 184.713 365.448 182.841 365.448C180.993 365.448 179.505 366.048 178.377 367.248C177.249 368.424 176.685 370.02 176.685 372.036V372.36C176.685 374.376 177.249 375.984 178.377 377.184C179.505 378.36 180.993 378.948 182.841 378.948ZM196.959 381V363.396H199.731V365.556H200.235C200.547 364.788 201.027 364.224 201.675 363.864C202.323 363.504 203.175 363.324 204.231 363.324H206.319V365.916H204.051C202.779 365.916 201.747 366.276 200.955 366.996C200.187 367.692 199.803 368.784 199.803 370.272V381H196.959ZM210.529 381V363.396H213.301V365.556H213.805C214.117 364.788 214.597 364.224 215.245 363.864C215.893 363.504 216.745 363.324 217.801 363.324H219.889V365.916H217.621C216.349 365.916 215.317 366.276 214.525 366.996C213.757 367.692 213.373 368.784 213.373 370.272V381H210.529ZM231.603 381.504C229.827 381.504 228.255 381.132 226.887 380.388C225.543 379.644 224.487 378.6 223.719 377.256C222.975 375.888 222.603 374.28 222.603 372.432V371.964C222.603 370.14 222.975 368.544 223.719 367.176C224.487 365.808 225.543 364.752 226.887 364.008C228.255 363.264 229.827 362.892 231.603 362.892C233.379 362.892 234.939 363.264 236.283 364.008C237.651 364.752 238.707 365.808 239.451 367.176C240.219 368.544 240.603 370.14 240.603 371.964V372.432C240.603 374.28 240.219 375.888 239.451 377.256C238.707 378.6 237.651 379.644 236.283 380.388C234.939 381.132 233.379 381.504 231.603 381.504ZM231.603 378.948C233.475 378.948 234.963 378.36 236.067 377.184C237.195 375.984 237.759 374.376 237.759 372.36V372.036C237.759 370.02 237.195 368.424 236.067 367.248C234.963 366.048 233.475 365.448 231.603 365.448C229.755 365.448 228.267 366.048 227.139 367.248C226.011 368.424 225.447 370.02 225.447 372.036V372.36C225.447 374.376 226.011 375.984 227.139 377.184C228.267 378.36 229.755 378.948 231.603 378.948ZM247.817 381L244.289 363.396H247.169L250.085 379.092H250.589L254.441 363.396H259.157L263.009 379.092H263.513L266.429 363.396H269.309L265.781 381H260.921L257.033 365.304H256.565L252.677 381H247.817ZM273.909 364.152V362.352H274.953C275.817 362.352 276.249 361.92 276.249 361.056V359.904H275.745C275.049 359.904 274.461 359.688 273.981 359.256C273.525 358.824 273.297 358.284 273.297 357.636C273.297 356.94 273.525 356.376 273.981 355.944C274.461 355.512 275.049 355.296 275.745 355.296C276.441 355.296 277.017 355.524 277.473 355.98C277.929 356.436 278.157 357.012 278.157 357.708V361.056C278.157 363.12 277.125 364.152 275.061 364.152H273.909ZM290.184 381.504C288 381.504 286.152 381 284.64 379.992C283.152 378.984 282.252 377.388 281.94 375.204L284.64 374.592C284.832 375.744 285.192 376.656 285.72 377.328C286.248 377.976 286.896 378.444 287.664 378.732C288.456 378.996 289.296 379.128 290.184 379.128C291.504 379.128 292.548 378.864 293.316 378.336C294.084 377.808 294.468 377.1 294.468 376.212C294.468 375.3 294.096 374.664 293.352 374.304C292.632 373.92 291.636 373.608 290.364 373.368L288.888 373.116C287.76 372.924 286.728 372.624 285.792 372.216C284.856 371.808 284.112 371.256 283.56 370.56C283.008 369.864 282.732 368.988 282.732 367.932C282.732 366.348 283.344 365.112 284.568 364.224C285.792 363.336 287.412 362.892 289.428 362.892C291.42 362.892 293.028 363.348 294.252 364.26C295.5 365.148 296.304 366.408 296.664 368.04L294 368.724C293.784 367.452 293.268 366.564 292.452 366.06C291.636 365.532 290.628 365.268 289.428 365.268C288.228 365.268 287.28 365.496 286.584 365.952C285.888 366.384 285.54 367.032 285.54 367.896C285.54 368.736 285.864 369.36 286.512 369.768C287.184 370.152 288.072 370.44 289.176 370.632L290.652 370.884C291.9 371.1 293.016 371.4 294 371.784C295.008 372.144 295.8 372.672 296.376 373.368C296.976 374.064 297.276 374.976 297.276 376.104C297.276 377.832 296.628 379.164 295.332 380.1C294.06 381.036 292.344 381.504 290.184 381.504Z" fill="white"/>
<path d="M185.168 423L192.944 397.8H198.272L206.048 423H202.916L200.972 416.628H190.244L188.3 423H185.168ZM191 413.892H200.18L195.86 399.636H195.356L191 413.892ZM209.823 423V397.8H212.847V423H209.823Z" fill="white"/>
</svg>
